<svg id="svg" version="1.1" xmlns="http://www.w3.org/2000/svg" xmlns:xlink="http://www.w3.org/1999/xlink" width="400" height="535.1851851851852" viewBox="0, 0, 400,535.1851851851852"><g id="svgg"><path id="path0" d="M53.893 0.240 C 53.739 0.394,52.530 0.488,51.207 0.448 C 49.281 0.390,48.800 0.498,48.800 0.988 C 48.800 1.421,48.390 1.600,47.400 1.600 C 46.630 1.600,46.000 1.780,46.000 2.000 C 46.000 2.220,45.280 2.400,44.400 2.400 C 43.520 2.400,42.800 2.580,42.800 2.800 C 42.800 3.020,42.260 3.200,41.600 3.200 C 40.757 3.200,40.400 3.394,40.400 3.852 C 40.400 4.374,40.121 4.459,39.000 4.277 C 37.944 4.106,37.600 4.192,37.600 4.625 C 37.600 4.941,37.240 5.200,36.800 5.200 C 36.360 5.200,36.000 5.380,36.000 5.600 C 36.000 5.820,35.659 6.000,35.243 6.000 C 34.826 6.000,34.375 6.289,34.239 6.642 C 34.064 7.097,33.705 7.213,33.007 7.037 C 32.235 6.844,32.072 6.921,32.253 7.395 C 32.424 7.840,32.209 8.000,31.443 8.000 C 30.869 8.000,30.400 8.180,30.400 8.400 C 30.400 8.620,30.130 8.800,29.800 8.800 C 29.470 8.800,29.200 9.073,29.200 9.408 C 29.200 9.856,28.938 9.949,28.200 9.764 C 27.493 9.587,27.200 9.676,27.200 10.068 C 27.200 10.374,26.840 10.883,26.400 11.200 C 25.960 11.517,25.600 12.010,25.600 12.296 C 25.600 12.651,25.282 12.735,24.595 12.563 C 23.782 12.359,23.638 12.434,23.838 12.956 C 23.992 13.357,23.877 13.600,23.531 13.600 C 23.226 13.600,22.717 13.960,22.400 14.400 C 22.083 14.840,21.593 15.200,21.312 15.200 C 21.030 15.200,20.800 15.389,20.800 15.619 C 20.800 15.850,19.540 17.269,18.000 18.773 C 16.460 20.277,15.200 21.758,15.200 22.065 C 15.200 22.372,14.840 22.883,14.400 23.200 C 13.960 23.517,13.600 23.930,13.600 24.117 C 13.600 24.304,13.375 24.708,13.100 25.015 C 12.014 26.226,11.600 26.777,11.600 27.012 C 11.600 27.437,10.478 28.400,9.982 28.400 C 9.704 28.400,9.593 28.732,9.716 29.200 C 9.852 29.720,9.728 30.000,9.363 30.000 C 9.029 30.000,8.800 30.407,8.800 31.000 C 8.800 31.550,8.620 32.000,8.400 32.000 C 8.180 32.000,8.000 32.450,8.000 33.000 C 8.000 34.053,7.429 34.348,7.033 33.500 C 6.904 33.225,6.897 33.675,7.018 34.500 C 7.190 35.681,7.105 36.000,6.618 36.000 C 6.267 36.000,6.000 36.345,6.000 36.800 C 6.000 37.240,5.820 37.600,5.600 37.600 C 5.380 37.600,5.200 38.249,5.200 39.043 C 5.200 40.179,5.069 40.435,4.583 40.249 C 4.072 40.053,4.011 40.252,4.228 41.406 C 4.438 42.529,4.364 42.800,3.845 42.800 C 3.359 42.800,3.200 43.195,3.200 44.400 C 3.200 45.280,3.020 46.000,2.800 46.000 C 2.580 46.000,2.400 46.810,2.400 47.800 C 2.400 49.113,2.242 49.600,1.815 49.600 C 1.337 49.600,1.274 50.075,1.473 52.200 C 1.682 54.444,1.626 54.800,1.058 54.800 C 0.470 54.800,0.400 55.629,0.400 62.600 C 0.400 69.524,0.473 70.400,1.048 70.400 C 1.593 70.400,1.668 70.783,1.523 72.800 C 1.392 74.604,1.480 75.200,1.874 75.200 C 2.231 75.200,2.400 75.780,2.400 77.000 C 2.400 77.990,2.580 78.800,2.800 78.800 C 3.020 78.800,3.200 79.610,3.200 80.600 C 3.200 81.957,3.352 82.400,3.818 82.400 C 4.308 82.400,4.382 82.691,4.174 83.800 C 3.956 84.960,4.029 85.200,4.601 85.200 C 5.134 85.200,5.252 85.463,5.121 86.359 C 4.998 87.197,5.096 87.461,5.475 87.316 C 5.826 87.181,6.000 87.461,6.000 88.157 C 6.000 88.817,6.220 89.200,6.600 89.200 C 6.973 89.200,7.200 89.578,7.200 90.200 C 7.200 90.750,7.380 91.200,7.600 91.200 C 7.820 91.200,8.000 91.560,8.000 92.000 C 8.000 92.440,8.180 92.800,8.400 92.800 C 8.620 92.800,8.800 93.166,8.800 93.613 C 8.800 94.059,9.043 94.518,9.341 94.633 C 9.671 94.759,9.809 95.221,9.694 95.820 C 9.580 96.415,9.693 96.800,9.982 96.800 C 10.659 96.800,11.600 97.830,11.600 98.571 C 11.600 98.917,11.870 99.200,12.200 99.200 C 12.530 99.200,12.800 99.470,12.800 99.800 C 12.800 100.130,12.980 100.400,13.200 100.400 C 13.420 100.400,13.600 100.850,13.600 101.400 C 13.600 101.950,13.777 102.400,13.993 102.400 C 14.432 102.400,17.200 104.985,17.200 105.395 C 17.200 105.731,18.263 106.800,18.596 106.800 C 19.071 106.800,24.400 112.393,24.406 112.897 C 24.410 113.242,24.546 113.211,24.837 112.800 C 25.156 112.348,25.311 112.324,25.464 112.700 C 25.575 112.975,25.845 113.200,26.062 113.200 C 26.589 113.200,27.600 114.233,27.600 114.771 C 27.600 115.007,27.960 115.200,28.400 115.200 C 28.840 115.200,29.200 115.380,29.200 115.600 C 29.200 115.820,29.470 116.000,29.800 116.000 C 30.527 116.000,30.593 116.642,29.900 116.971 C 29.625 117.101,29.985 117.121,30.700 117.014 C 31.667 116.870,32.000 116.971,32.000 117.410 C 32.000 117.773,32.385 118.000,33.000 118.000 C 33.550 118.000,34.000 118.180,34.000 118.400 C 34.000 118.620,34.360 118.800,34.800 118.800 C 35.690 118.800,35.876 119.403,35.100 119.770 C 34.825 119.901,35.275 119.927,36.100 119.829 C 37.220 119.695,37.600 119.796,37.600 120.225 C 37.600 120.615,38.049 120.800,39.000 120.800 C 39.770 120.800,40.400 120.980,40.400 121.200 C 40.400 121.420,40.850 121.600,41.400 121.600 C 41.950 121.600,42.400 121.780,42.400 122.000 C 42.400 122.220,42.959 122.400,43.643 122.400 C 44.583 122.400,44.830 122.546,44.655 123.000 C 44.470 123.484,44.810 123.600,46.413 123.600 C 47.506 123.600,48.400 123.780,48.400 124.000 C 48.400 124.226,49.533 124.400,51.000 124.400 C 52.467 124.400,53.600 124.574,53.600 124.800 C 53.600 125.055,56.925 125.200,62.776 125.200 C 68.463 125.200,72.047 125.048,72.200 124.800 C 72.336 124.580,73.607 124.400,75.024 124.400 C 76.475 124.400,77.600 124.225,77.600 124.000 C 77.600 123.780,78.410 123.600,79.400 123.600 C 80.733 123.600,81.200 123.444,81.200 123.000 C 81.200 122.627,81.578 122.400,82.200 122.400 C 82.750 122.400,83.200 122.220,83.200 122.000 C 83.200 121.780,83.740 121.600,84.400 121.600 C 85.060 121.600,85.600 121.420,85.600 121.200 C 85.600 120.980,86.121 120.800,86.757 120.800 C 87.397 120.800,88.014 120.542,88.136 120.222 C 88.295 119.809,88.794 119.696,89.879 119.825 C 90.716 119.925,91.175 119.901,90.900 119.770 C 90.124 119.403,90.310 118.800,91.200 118.800 C 91.640 118.800,92.000 118.620,92.000 118.400 C 92.000 118.180,92.450 118.000,93.000 118.000 C 93.641 118.000,94.000 117.775,94.000 117.373 C 94.000 116.929,94.232 116.820,94.797 116.999 C 95.396 117.189,95.709 116.998,96.061 116.226 C 96.369 115.550,96.848 115.200,97.464 115.200 C 97.979 115.200,98.400 114.996,98.400 114.747 C 98.400 114.076,100.487 112.401,101.324 112.400 C 101.722 112.400,101.935 112.219,101.798 111.997 C 101.661 111.776,101.876 111.473,102.275 111.325 C 102.674 111.177,103.291 110.728,103.647 110.328 C 104.003 109.927,104.421 109.600,104.575 109.600 C 104.931 109.600,106.000 108.545,106.000 108.195 C 106.000 107.785,108.768 105.200,109.207 105.200 C 109.423 105.200,109.600 104.930,109.600 104.600 C 109.600 104.270,109.780 104.000,110.000 104.000 C 110.220 104.000,110.400 103.730,110.400 103.400 C 110.400 103.070,110.670 102.800,111.000 102.800 C 111.333 102.800,111.600 102.444,111.600 102.000 C 111.600 101.560,111.780 101.200,112.000 101.200 C 112.220 101.200,112.400 100.950,112.400 100.643 C 112.400 100.337,112.850 99.974,113.400 99.836 C 114.131 99.652,114.400 99.317,114.400 98.592 C 114.400 98.047,114.580 97.600,114.800 97.600 C 115.020 97.600,115.200 97.150,115.200 96.600 C 115.200 95.548,115.773 95.250,116.163 96.100 C 116.289 96.375,116.292 96.194,116.169 95.698 C 116.019 95.095,116.153 94.716,116.572 94.555 C 116.918 94.423,117.200 93.974,117.200 93.557 C 117.200 93.141,117.380 92.800,117.600 92.800 C 117.820 92.800,118.000 92.440,118.000 92.000 C 118.000 91.560,118.180 91.200,118.400 91.200 C 118.620 91.200,118.800 90.750,118.800 90.200 C 118.800 89.546,119.024 89.200,119.447 89.200 C 119.926 89.200,120.042 88.933,119.896 88.168 C 119.771 87.513,119.900 87.060,120.249 86.926 C 120.567 86.804,120.800 86.140,120.800 85.357 C 120.800 84.611,120.980 84.000,121.200 84.000 C 121.420 84.000,121.600 83.572,121.600 83.049 C 121.600 82.526,121.845 81.895,122.144 81.646 C 122.452 81.391,122.606 80.765,122.498 80.202 C 122.370 79.532,122.518 79.130,122.954 78.962 C 123.427 78.781,123.600 78.189,123.600 76.757 C 123.600 75.681,123.780 74.800,124.000 74.800 C 124.239 74.800,124.400 73.252,124.400 70.957 C 124.400 67.706,124.492 67.150,125.000 67.345 C 125.514 67.542,125.600 66.856,125.600 62.587 C 125.600 58.421,125.501 57.600,125.000 57.600 C 124.511 57.600,124.400 56.933,124.400 54.000 C 124.400 51.867,124.237 50.400,124.000 50.400 C 123.780 50.400,123.600 49.519,123.600 48.443 C 123.600 47.013,123.427 46.419,122.956 46.239 C 122.459 46.048,122.372 45.674,122.574 44.596 C 122.782 43.491,122.708 43.200,122.218 43.200 C 121.798 43.200,121.600 42.816,121.600 42.000 C 121.600 41.340,121.420 40.800,121.200 40.800 C 120.980 40.800,120.800 40.189,120.800 39.443 C 120.800 38.638,120.568 37.997,120.231 37.867 C 119.883 37.734,119.746 37.329,119.878 36.824 C 120.030 36.243,119.903 36.000,119.447 36.000 C 119.024 36.000,118.800 35.654,118.800 35.000 C 118.800 34.450,118.620 34.000,118.400 34.000 C 118.180 34.000,118.000 33.550,118.000 33.000 C 118.000 32.450,117.820 32.000,117.600 32.000 C 117.380 32.000,117.200 31.640,117.200 31.200 C 117.200 30.756,116.933 30.400,116.600 30.400 C 116.270 30.400,116.000 30.130,116.000 29.800 C 116.000 29.470,115.820 29.200,115.600 29.200 C 115.380 29.200,115.200 28.906,115.200 28.546 C 115.200 28.186,114.752 27.476,114.204 26.969 C 113.603 26.412,113.303 25.798,113.447 25.423 C 113.580 25.076,113.477 24.800,113.214 24.800 C 112.625 24.800,111.600 23.802,111.600 23.229 C 111.600 22.993,111.330 22.800,111.000 22.800 C 110.642 22.800,110.400 22.432,110.400 21.888 C 110.400 21.387,110.040 20.717,109.600 20.400 C 109.160 20.083,108.800 19.597,108.800 19.319 C 108.800 19.042,108.350 18.702,107.800 18.564 C 107.250 18.426,106.800 18.063,106.800 17.757 C 106.800 17.450,106.650 17.200,106.468 17.200 C 106.285 17.200,105.894 16.750,105.600 16.200 C 105.306 15.650,104.865 15.200,104.621 15.200 C 104.376 15.200,103.917 14.840,103.600 14.400 C 103.283 13.960,102.690 13.600,102.283 13.600 C 101.472 13.600,100.400 12.706,100.400 12.029 C 100.400 11.793,100.159 11.600,99.864 11.600 C 99.570 11.600,99.118 11.138,98.861 10.574 C 98.509 9.801,98.197 9.611,97.595 9.802 C 97.065 9.970,96.715 9.844,96.555 9.428 C 96.423 9.082,95.974 8.800,95.557 8.800 C 95.141 8.800,94.800 8.620,94.800 8.400 C 94.800 8.180,94.530 8.000,94.200 8.000 C 93.870 8.000,93.600 7.727,93.600 7.392 C 93.600 6.945,93.338 6.851,92.604 7.035 C 91.894 7.213,91.536 7.100,91.361 6.642 C 91.225 6.289,90.864 6.000,90.557 6.000 C 90.251 6.000,90.000 5.820,90.000 5.600 C 90.000 5.380,89.550 5.200,89.000 5.200 C 88.385 5.200,88.000 4.973,88.000 4.610 C 88.000 4.168,87.699 4.080,86.800 4.260 C 85.861 4.448,85.600 4.359,85.600 3.850 C 85.600 3.374,85.226 3.200,84.200 3.200 C 83.430 3.200,82.800 3.020,82.800 2.800 C 82.800 2.580,82.189 2.400,81.443 2.400 C 80.677 2.400,79.996 2.166,79.880 1.864 C 79.746 1.516,79.240 1.391,78.437 1.509 C 77.477 1.650,77.200 1.542,77.200 1.025 C 77.200 0.491,76.782 0.354,75.100 0.334 C 73.945 0.320,68.764 0.230,63.587 0.134 C 58.409 0.039,54.047 0.086,53.893 0.240 " stroke="none" fill="#d30404" fill-rule="evenodd"></path><path id="path1" d="M51.200 0.153 C 51.200 0.510,52.675 0.652,53.406 0.366 C 54.011 0.130,53.843 0.050,52.700 0.028 C 51.875 0.013,51.200 0.069,51.200 0.153 M72.000 0.153 C 72.000 0.517,73.559 0.672,74.056 0.357 C 74.426 0.123,74.184 0.010,73.300 0.006 C 72.585 0.003,72.000 0.069,72.000 0.153 M46.000 0.757 C 46.000 0.953,45.550 1.226,45.000 1.364 C 44.450 1.502,44.000 1.792,44.000 2.008 C 44.000 2.223,44.450 2.400,45.000 2.400 C 45.550 2.400,46.000 2.220,46.000 2.000 C 46.000 1.780,46.630 1.600,47.400 1.600 C 48.378 1.600,48.800 1.419,48.800 1.000 C 48.800 0.581,48.378 0.400,47.400 0.400 C 46.630 0.400,46.000 0.560,46.000 0.757 M77.200 1.000 C 77.200 1.373,77.578 1.600,78.200 1.600 C 78.822 1.600,79.200 1.373,79.200 1.000 C 79.200 0.627,78.822 0.400,78.200 0.400 C 77.578 0.400,77.200 0.627,77.200 1.000 M79.855 1.800 C 79.982 2.130,80.516 2.400,81.043 2.400 C 82.125 2.400,82.325 1.810,81.367 1.443 C 80.257 1.017,79.613 1.169,79.855 1.800 M41.200 2.800 C 41.200 3.020,41.560 3.200,42.000 3.200 C 42.440 3.200,42.800 3.020,42.800 2.800 C 42.800 2.580,42.440 2.400,42.000 2.400 C 41.560 2.400,41.200 2.580,41.200 2.800 M82.800 2.800 C 82.800 3.020,83.250 3.200,83.800 3.200 C 84.350 3.200,84.800 3.020,84.800 2.800 C 84.800 2.580,84.350 2.400,83.800 2.400 C 83.250 2.400,82.800 2.580,82.800 2.800 M156.000 2.800 C 156.000 3.020,155.190 3.200,154.200 3.200 C 153.210 3.200,152.400 3.380,152.400 3.600 C 152.400 3.820,152.034 4.000,151.587 4.000 C 151.141 4.000,150.671 4.270,150.545 4.600 C 150.418 4.930,149.974 5.200,149.557 5.200 C 149.141 5.200,148.800 5.380,148.800 5.600 C 148.800 5.820,148.607 6.000,148.371 6.000 C 147.818 6.000,146.800 7.018,146.800 7.571 C 146.800 7.807,146.432 8.000,145.982 8.000 C 145.131 8.000,143.200 9.653,143.200 10.382 C 143.200 10.612,142.930 10.800,142.600 10.800 C 142.267 10.800,142.000 11.156,142.000 11.600 C 142.000 12.133,141.733 12.400,141.200 12.400 C 140.623 12.400,140.400 12.667,140.400 13.357 C 140.400 13.884,140.130 14.418,139.800 14.545 C 139.470 14.671,139.200 15.141,139.200 15.587 C 139.200 16.034,139.020 16.400,138.800 16.400 C 138.580 16.400,138.400 16.760,138.400 17.200 C 138.400 17.640,138.220 18.000,138.000 18.000 C 137.780 18.000,137.600 18.431,137.600 18.957 C 137.600 19.484,137.330 20.018,137.000 20.145 C 136.649 20.279,136.400 20.879,136.400 21.587 C 136.400 22.254,136.220 22.800,136.000 22.800 C 135.763 22.800,135.600 24.267,135.600 26.400 C 135.600 28.533,135.437 30.000,135.200 30.000 C 134.936 30.000,134.800 42.600,134.800 67.000 C 134.800 91.400,134.936 104.000,135.200 104.000 C 135.437 104.000,135.600 105.459,135.600 107.576 C 135.600 109.543,135.780 111.264,136.000 111.400 C 136.220 111.536,136.400 112.182,136.400 112.836 C 136.400 113.524,136.653 114.122,137.000 114.255 C 137.330 114.382,137.600 114.826,137.600 115.243 C 137.600 115.659,137.780 116.000,138.000 116.000 C 138.220 116.000,138.400 116.450,138.400 117.000 C 138.400 117.550,138.580 118.000,138.800 118.000 C 139.020 118.000,139.200 118.317,139.200 118.704 C 139.200 119.091,139.826 119.946,140.591 120.604 C 141.357 121.262,141.987 122.041,141.991 122.335 C 142.003 123.081,146.229 127.200,146.983 127.200 C 147.322 127.200,147.600 127.380,147.600 127.600 C 147.600 127.820,147.870 128.000,148.200 128.000 C 148.530 128.000,148.800 128.270,148.800 128.600 C 148.800 128.930,149.149 129.200,149.576 129.200 C 150.003 129.200,150.464 129.380,150.600 129.600 C 150.736 129.820,151.377 130.000,152.024 130.000 C 152.671 130.000,153.200 130.180,153.200 130.400 C 153.200 130.620,153.650 130.800,154.200 130.800 C 154.822 130.800,155.200 131.027,155.200 131.400 C 155.200 131.930,160.444 132.000,200.000 132.000 C 239.556 132.000,244.800 131.930,244.800 131.400 C 244.800 130.981,245.222 130.800,246.200 130.800 C 246.970 130.800,247.600 130.620,247.600 130.400 C 247.600 130.180,248.050 130.000,248.600 130.000 C 249.150 130.000,249.600 129.820,249.600 129.600 C 249.600 129.380,249.960 129.200,250.400 129.200 C 250.844 129.200,251.200 128.933,251.200 128.600 C 251.200 128.242,251.568 128.000,252.112 128.000 C 252.613 128.000,253.283 127.640,253.600 127.200 C 253.917 126.760,254.407 126.400,254.688 126.400 C 254.970 126.400,255.200 126.212,255.200 125.982 C 255.200 125.439,257.039 123.600,257.582 123.600 C 257.812 123.600,258.000 123.370,258.000 123.088 C 258.000 122.807,258.360 122.317,258.800 122.000 C 259.240 121.683,259.600 121.185,259.600 120.893 C 259.600 120.601,260.050 119.945,260.600 119.435 C 261.223 118.857,261.600 118.072,261.600 117.349 C 261.600 116.580,261.936 115.937,262.600 115.439 C 263.259 114.944,263.600 114.297,263.600 113.544 C 263.600 112.915,263.780 112.400,264.000 112.400 C 264.222 112.400,264.400 111.333,264.400 110.000 C 264.400 108.667,264.578 107.600,264.800 107.600 C 265.064 107.600,265.200 93.800,265.200 67.000 C 265.200 40.200,265.064 26.400,264.800 26.400 C 264.578 26.400,264.400 25.333,264.400 24.000 C 264.400 22.667,264.222 21.600,264.000 21.600 C 263.780 21.600,263.600 21.054,263.600 20.387 C 263.600 19.679,263.351 19.079,263.000 18.945 C 262.670 18.818,262.400 18.374,262.400 17.957 C 262.400 17.541,262.220 17.200,262.000 17.200 C 261.780 17.200,261.594 16.885,261.587 16.500 C 261.572 15.635,260.671 14.400,260.056 14.400 C 259.805 14.400,259.600 14.032,259.600 13.582 C 259.600 12.731,257.947 10.800,257.218 10.800 C 256.988 10.800,256.800 10.350,256.800 9.800 C 256.800 9.067,256.587 8.800,256.000 8.800 C 255.560 8.800,255.200 8.620,255.200 8.400 C 255.200 8.180,254.930 8.000,254.600 8.000 C 254.270 8.000,254.000 7.807,254.000 7.571 C 254.000 6.866,252.914 6.000,252.029 6.000 C 251.573 6.000,251.200 5.820,251.200 5.600 C 251.200 5.380,250.859 5.200,250.443 5.200 C 250.026 5.200,249.582 4.930,249.455 4.600 C 249.329 4.270,248.859 4.000,248.413 4.000 C 247.966 4.000,247.600 3.820,247.600 3.600 C 247.600 3.380,246.970 3.200,246.200 3.200 C 245.430 3.200,244.800 3.020,244.800 2.800 C 244.800 2.536,229.733 2.400,200.400 2.400 C 171.067 2.400,156.000 2.536,156.000 2.800 M290.400 2.800 C 290.400 3.020,289.770 3.200,289.000 3.200 C 288.230 3.200,287.600 3.380,287.600 3.600 C 287.600 3.820,287.085 4.000,286.456 4.000 C 285.703 4.000,285.056 4.341,284.561 5.000 C 284.148 5.550,283.583 6.000,283.305 6.000 C 283.027 6.000,282.800 6.180,282.800 6.400 C 282.800 6.620,282.440 6.800,282.000 6.800 C 281.556 6.800,281.200 7.067,281.200 7.400 C 281.200 7.730,281.012 8.000,280.782 8.000 C 280.239 8.000,278.400 9.839,278.400 10.382 C 278.400 10.612,278.212 10.800,277.982 10.800 C 277.253 10.800,275.600 12.731,275.600 13.582 C 275.600 14.042,275.338 14.400,275.000 14.400 C 274.642 14.400,274.400 14.768,274.400 15.312 C 274.400 15.813,274.040 16.483,273.600 16.800 C 273.160 17.117,272.800 17.675,272.800 18.039 C 272.800 18.404,272.530 18.926,272.200 19.200 C 271.855 19.486,271.600 20.358,271.600 21.249 C 271.600 22.102,271.420 22.800,271.200 22.800 C 270.980 22.800,270.800 23.790,270.800 25.000 C 270.800 26.210,270.620 27.200,270.400 27.200 C 270.136 27.200,270.000 40.733,270.000 67.000 C 270.000 93.267,270.136 106.800,270.400 106.800 C 270.622 106.800,270.800 107.867,270.800 109.200 C 270.800 110.533,270.978 111.600,271.200 111.600 C 271.420 111.600,271.600 112.326,271.600 113.213 C 271.600 114.277,271.804 114.903,272.200 115.055 C 272.530 115.182,272.800 115.592,272.800 115.967 C 272.800 116.342,273.160 117.036,273.600 117.508 C 274.040 117.980,274.400 118.650,274.400 118.996 C 274.400 119.342,274.670 119.729,275.000 119.855 C 275.330 119.982,275.600 120.387,275.600 120.754 C 275.600 121.122,275.960 121.683,276.400 122.000 C 276.840 122.317,277.200 122.807,277.200 123.088 C 277.200 123.370,277.388 123.600,277.617 123.600 C 277.847 123.600,279.001 124.590,280.183 125.800 C 281.430 127.078,282.681 128.000,283.165 128.000 C 283.641 128.000,284.000 128.258,284.000 128.600 C 284.000 128.933,284.356 129.200,284.800 129.200 C 285.240 129.200,285.600 129.380,285.600 129.600 C 285.600 129.820,286.050 130.000,286.600 130.000 C 287.150 130.000,287.600 130.180,287.600 130.400 C 287.600 130.620,288.211 130.800,288.957 130.800 C 289.795 130.800,290.403 131.030,290.545 131.400 C 290.895 132.312,380.000 132.312,380.000 131.400 C 380.000 131.027,380.378 130.800,381.000 130.800 C 381.550 130.800,382.000 130.620,382.000 130.400 C 382.000 130.180,382.630 130.000,383.400 130.000 C 384.170 130.000,384.800 129.820,384.800 129.600 C 384.800 129.380,385.160 129.200,385.600 129.200 C 386.044 129.200,386.400 128.933,386.400 128.600 C 386.400 128.264,386.757 128.000,387.209 128.000 C 388.106 128.000,393.195 123.194,393.209 122.335 C 393.213 122.041,393.843 121.262,394.609 120.604 C 395.374 119.946,396.000 119.091,396.000 118.704 C 396.000 118.317,396.180 118.000,396.400 118.000 C 396.620 118.000,396.800 117.550,396.800 117.000 C 396.800 116.450,396.980 116.000,397.200 116.000 C 397.420 116.000,397.600 115.370,397.600 114.600 C 397.600 113.622,397.781 113.200,398.200 113.200 C 398.530 113.200,398.800 112.855,398.800 112.433 C 398.800 112.012,399.025 111.592,399.300 111.500 C 399.696 111.368,399.800 102.151,399.800 67.200 C 399.800 32.249,399.696 23.032,399.300 22.900 C 399.025 22.808,398.800 22.298,398.800 21.767 C 398.800 21.174,398.568 20.800,398.200 20.800 C 397.781 20.800,397.600 20.378,397.600 19.400 C 397.600 18.630,397.420 18.000,397.200 18.000 C 396.980 18.000,396.800 17.640,396.800 17.200 C 396.800 16.760,396.620 16.400,396.400 16.400 C 396.180 16.400,396.000 15.950,396.000 15.400 C 396.000 14.850,395.807 14.400,395.571 14.400 C 394.924 14.400,394.000 13.342,394.000 12.600 C 394.000 11.858,393.076 10.800,392.429 10.800 C 392.193 10.800,392.000 10.612,392.000 10.382 C 392.000 9.839,390.161 8.000,389.618 8.000 C 389.388 8.000,389.200 7.730,389.200 7.400 C 389.200 7.067,388.844 6.800,388.400 6.800 C 387.960 6.800,387.600 6.620,387.600 6.400 C 387.600 6.180,387.330 6.000,387.000 6.000 C 386.670 6.000,386.400 5.820,386.400 5.600 C 386.400 5.380,386.059 5.200,385.643 5.200 C 385.226 5.200,384.782 4.930,384.655 4.600 C 384.529 4.270,384.059 4.000,383.613 4.000 C 383.166 4.000,382.800 3.820,382.800 3.600 C 382.800 3.380,382.170 3.200,381.400 3.200 C 380.630 3.200,380.000 3.020,380.000 2.800 C 380.000 2.536,364.800 2.400,335.200 2.400 C 305.600 2.400,290.400 2.536,290.400 2.800 M38.400 3.800 C 38.400 4.173,38.778 4.400,39.400 4.400 C 40.022 4.400,40.400 4.173,40.400 3.800 C 40.400 3.427,40.022 3.200,39.400 3.200 C 38.778 3.200,38.400 3.427,38.400 3.800 M85.600 3.800 C 85.600 4.251,85.881 4.416,86.500 4.328 C 86.995 4.258,87.400 4.020,87.400 3.800 C 87.400 3.580,86.995 3.342,86.500 3.272 C 85.881 3.184,85.600 3.349,85.600 3.800 M36.667 4.267 C 36.206 4.727,36.375 5.200,37.000 5.200 C 37.330 5.200,37.600 4.930,37.600 4.600 C 37.600 3.975,37.127 3.806,36.667 4.267 M88.000 4.600 C 88.000 4.930,88.270 5.200,88.600 5.200 C 88.930 5.200,89.200 4.930,89.200 4.600 C 89.200 4.270,88.930 4.000,88.600 4.000 C 88.270 4.000,88.000 4.270,88.000 4.600 M34.800 5.600 C 34.800 5.820,35.070 6.000,35.400 6.000 C 35.730 6.000,36.000 5.820,36.000 5.600 C 36.000 5.380,35.730 5.200,35.400 5.200 C 35.070 5.200,34.800 5.380,34.800 5.600 M90.000 5.600 C 90.000 5.820,90.205 6.000,90.456 6.000 C 90.707 6.000,91.131 6.299,91.398 6.665 C 91.696 7.072,92.149 7.228,92.568 7.068 C 93.424 6.739,93.015 6.000,91.976 6.000 C 91.549 6.000,91.200 5.820,91.200 5.600 C 91.200 5.380,90.930 5.200,90.600 5.200 C 90.270 5.200,90.000 5.380,90.000 5.600 M32.984 6.427 C 32.839 6.661,32.820 6.953,32.943 7.076 C 33.272 7.405,34.400 6.891,34.400 6.413 C 34.400 5.870,33.321 5.880,32.984 6.427 M31.456 7.078 C 31.005 7.528,31.181 8.000,31.800 8.000 C 32.130 8.000,32.400 7.831,32.400 7.624 C 32.400 7.119,31.775 6.758,31.456 7.078 M93.600 7.413 C 93.600 7.736,93.870 8.000,94.200 8.000 C 94.530 8.000,94.800 8.180,94.800 8.400 C 94.800 8.620,95.070 8.800,95.400 8.800 C 95.730 8.800,96.000 8.620,96.000 8.400 C 96.000 8.180,95.730 8.000,95.400 8.000 C 95.070 8.000,94.800 7.839,94.800 7.643 C 94.800 7.446,94.530 7.182,94.200 7.055 C 93.835 6.915,93.600 7.055,93.600 7.413 M28.900 8.598 C 28.299 9.281,28.248 10.000,28.800 10.000 C 29.020 10.000,29.200 9.730,29.200 9.400 C 29.200 9.070,29.470 8.800,29.800 8.800 C 30.130 8.800,30.400 8.620,30.400 8.400 C 30.400 7.817,29.481 7.939,28.900 8.598 M96.492 9.275 C 96.739 10.017,97.600 10.140,97.600 9.433 C 97.600 9.085,97.315 8.800,96.967 8.800 C 96.618 8.800,96.405 9.014,96.492 9.275 M99.200 11.200 C 99.200 11.420,99.470 11.600,99.800 11.600 C 100.130 11.600,100.400 11.793,100.400 12.029 C 100.400 12.550,101.405 13.600,101.905 13.600 C 102.104 13.600,102.267 13.330,102.267 13.000 C 102.267 12.670,102.066 12.400,101.822 12.400 C 101.577 12.400,101.117 12.040,100.800 11.600 C 100.196 10.762,99.200 10.513,99.200 11.200 M24.678 11.856 C 24.358 12.175,24.719 12.800,25.224 12.800 C 25.431 12.800,25.600 12.530,25.600 12.200 C 25.600 11.581,25.128 11.405,24.678 11.856 M22.800 12.967 C 22.800 13.315,23.085 13.600,23.433 13.600 C 23.782 13.600,23.995 13.386,23.908 13.125 C 23.661 12.383,22.800 12.260,22.800 12.967 M20.500 14.998 C 20.225 15.311,20.000 15.754,20.000 15.983 C 20.000 16.212,19.855 16.400,19.678 16.400 C 19.166 16.400,16.400 19.061,16.400 19.554 C 16.400 19.799,16.207 20.000,15.971 20.000 C 15.324 20.000,14.400 21.058,14.400 21.800 C 14.400 22.463,13.499 23.600,12.973 23.600 C 12.502 23.600,11.626 24.952,11.613 25.700 C 11.606 26.085,11.420 26.400,11.200 26.400 C 10.980 26.400,10.800 26.670,10.800 27.000 C 10.800 27.330,10.980 27.600,11.200 27.600 C 11.420 27.600,11.600 27.412,11.600 27.183 C 11.600 26.791,11.913 26.338,13.100 25.015 C 13.375 24.708,13.600 24.304,13.600 24.117 C 13.600 23.930,13.960 23.517,14.400 23.200 C 14.840 22.883,15.200 22.372,15.200 22.065 C 15.200 21.758,16.460 20.277,18.000 18.773 C 19.540 17.269,20.800 15.850,20.800 15.619 C 20.800 15.389,21.070 15.200,21.400 15.200 C 21.730 15.200,22.000 15.020,22.000 14.800 C 22.000 14.217,21.081 14.339,20.500 14.998 M106.000 16.800 C 106.000 17.020,106.180 17.200,106.400 17.200 C 106.620 17.200,106.800 17.470,106.800 17.800 C 106.800 18.130,107.070 18.400,107.400 18.400 C 107.730 18.400,108.000 18.130,108.000 17.800 C 108.000 17.470,107.730 17.200,107.400 17.200 C 107.070 17.200,106.800 17.020,106.800 16.800 C 106.800 16.580,106.620 16.400,106.400 16.400 C 106.180 16.400,106.000 16.580,106.000 16.800 M110.400 21.800 C 110.400 22.422,110.627 22.800,111.000 22.800 C 111.330 22.800,111.600 22.993,111.600 23.229 C 111.600 23.870,112.741 24.886,113.265 24.712 C 113.533 24.622,113.282 24.119,112.661 23.498 C 112.078 22.914,111.600 22.068,111.600 21.618 C 111.600 21.158,111.338 20.800,111.000 20.800 C 110.627 20.800,110.400 21.178,110.400 21.800 M113.200 25.819 C 113.200 25.940,113.650 26.455,114.200 26.965 C 114.750 27.475,115.200 28.186,115.200 28.546 C 115.200 28.906,115.380 29.200,115.600 29.200 C 115.820 29.200,116.000 29.470,116.000 29.800 C 116.000 30.130,116.270 30.400,116.600 30.400 C 117.344 30.400,117.345 30.414,116.523 28.767 C 115.519 26.753,113.200 24.696,113.200 25.819 M7.491 31.966 C 7.080 32.382,6.887 32.962,7.033 33.343 C 7.415 34.337,8.000 34.130,8.000 33.000 C 8.000 32.450,8.180 32.000,8.400 32.000 C 8.620 32.000,8.800 31.820,8.800 31.600 C 8.800 31.011,8.294 31.152,7.491 31.966 M117.200 31.600 C 117.200 31.820,117.380 32.000,117.600 32.000 C 117.820 32.000,118.000 32.450,118.000 33.000 C 118.000 33.550,118.180 34.000,118.400 34.000 C 119.002 34.000,118.881 32.423,118.229 31.771 C 117.558 31.101,117.200 31.042,117.200 31.600 M6.000 35.400 C 6.000 35.730,6.270 36.000,6.600 36.000 C 6.930 36.000,7.200 35.730,7.200 35.400 C 7.200 35.070,6.930 34.800,6.600 34.800 C 6.270 34.800,6.000 35.070,6.000 35.400 M118.800 35.400 C 118.800 35.730,119.070 36.000,119.400 36.000 C 119.730 36.000,120.000 35.730,120.000 35.400 C 120.000 35.070,119.730 34.800,119.400 34.800 C 119.070 34.800,118.800 35.070,118.800 35.400 M5.200 37.000 C 5.200 37.330,5.380 37.600,5.600 37.600 C 5.820 37.600,6.000 37.330,6.000 37.000 C 6.000 36.670,5.820 36.400,5.600 36.400 C 5.380 36.400,5.200 36.670,5.200 37.000 M119.870 36.961 C 119.645 37.549,119.903 38.000,120.467 38.000 C 120.650 38.000,120.800 37.640,120.800 37.200 C 120.800 36.283,120.191 36.126,119.870 36.961 M4.152 38.981 C 4.029 39.300,4.046 39.750,4.188 39.981 C 4.654 40.735,5.200 40.421,5.200 39.400 C 5.200 38.316,4.513 38.041,4.152 38.981 M120.800 40.000 C 120.800 40.440,120.980 40.800,121.200 40.800 C 121.420 40.800,121.600 40.440,121.600 40.000 C 121.600 39.560,121.420 39.200,121.200 39.200 C 120.980 39.200,120.800 39.560,120.800 40.000 M3.200 42.000 C 3.200 42.444,3.467 42.800,3.800 42.800 C 4.133 42.800,4.400 42.444,4.400 42.000 C 4.400 41.556,4.133 41.200,3.800 41.200 C 3.467 41.200,3.200 41.556,3.200 42.000 M121.600 42.600 C 121.600 42.930,121.870 43.200,122.200 43.200 C 122.530 43.200,122.800 42.930,122.800 42.600 C 122.800 42.270,122.530 42.000,122.200 42.000 C 121.870 42.000,121.600 42.270,121.600 42.600 M2.400 45.000 C 2.400 45.550,2.580 46.000,2.800 46.000 C 3.020 46.000,3.200 45.550,3.200 45.000 C 3.200 44.450,3.020 44.000,2.800 44.000 C 2.580 44.000,2.400 44.450,2.400 45.000 M122.545 44.600 C 122.259 45.346,122.635 46.400,123.187 46.400 C 123.414 46.400,123.600 45.860,123.600 45.200 C 123.600 43.944,122.940 43.569,122.545 44.600 M1.502 48.600 C 1.374 49.271,1.490 49.600,1.855 49.600 C 2.170 49.600,2.400 49.177,2.400 48.600 C 2.400 48.050,2.241 47.600,2.047 47.600 C 1.852 47.600,1.607 48.050,1.502 48.600 M123.600 49.000 C 123.600 49.770,123.780 50.400,124.000 50.400 C 124.220 50.400,124.400 49.770,124.400 49.000 C 124.400 48.230,124.220 47.600,124.000 47.600 C 123.780 47.600,123.600 48.230,123.600 49.000 M0.667 51.467 C 0.104 52.029,0.381 54.800,1.000 54.800 C 1.444 54.800,1.600 54.333,1.600 53.000 C 1.600 51.320,1.302 50.831,0.667 51.467 M124.400 55.367 C 124.400 57.119,124.534 57.600,125.021 57.600 C 125.518 57.600,125.618 57.186,125.521 55.531 C 125.348 52.569,124.400 52.429,124.400 55.367 M124.400 69.367 C 124.400 71.119,124.534 71.600,125.021 71.600 C 125.518 71.600,125.618 71.186,125.521 69.531 C 125.348 66.569,124.400 66.429,124.400 69.367 M0.400 72.400 C 0.400 73.911,0.547 74.400,1.000 74.400 C 1.453 74.400,1.600 73.911,1.600 72.400 C 1.600 70.889,1.453 70.400,1.000 70.400 C 0.547 70.400,0.400 70.889,0.400 72.400 M123.600 76.000 C 123.600 76.660,123.780 77.200,124.000 77.200 C 124.220 77.200,124.400 76.660,124.400 76.000 C 124.400 75.340,124.220 74.800,124.000 74.800 C 123.780 74.800,123.600 75.340,123.600 76.000 M1.357 75.833 C 1.491 76.181,1.600 76.631,1.600 76.833 C 1.600 77.035,1.780 77.200,2.000 77.200 C 2.220 77.200,2.400 76.750,2.400 76.200 C 2.400 75.548,2.176 75.200,1.757 75.200 C 1.335 75.200,1.198 75.418,1.357 75.833 M2.400 79.800 C 2.400 80.350,2.580 80.800,2.800 80.800 C 3.020 80.800,3.200 80.350,3.200 79.800 C 3.200 79.250,3.020 78.800,2.800 78.800 C 2.580 78.800,2.400 79.250,2.400 79.800 M122.550 79.387 C 122.426 79.710,122.408 80.205,122.510 80.487 C 122.612 80.769,122.420 81.316,122.084 81.702 C 121.232 82.680,121.817 83.089,122.798 82.202 C 123.296 81.751,123.600 80.969,123.600 80.138 C 123.600 78.778,122.959 78.319,122.550 79.387 M3.200 83.000 C 3.200 83.330,3.470 83.600,3.800 83.600 C 4.130 83.600,4.400 83.330,4.400 83.000 C 4.400 82.670,4.130 82.400,3.800 82.400 C 3.470 82.400,3.200 82.670,3.200 83.000 M120.800 85.200 C 120.800 85.860,120.980 86.400,121.200 86.400 C 121.420 86.400,121.600 85.860,121.600 85.200 C 121.600 84.540,121.420 84.000,121.200 84.000 C 120.980 84.000,120.800 84.540,120.800 85.200 M4.000 85.771 C 4.000 86.086,4.270 86.613,4.600 86.943 C 4.930 87.273,5.200 87.736,5.200 87.971 C 5.200 88.207,5.380 88.400,5.600 88.400 C 5.820 88.400,6.000 88.130,6.000 87.800 C 6.000 87.470,5.820 87.200,5.600 87.200 C 5.380 87.200,5.200 86.750,5.200 86.200 C 5.200 85.578,4.973 85.200,4.600 85.200 C 4.270 85.200,4.000 85.457,4.000 85.771 M119.894 87.039 C 119.574 87.360,119.993 88.400,120.443 88.400 C 120.639 88.400,120.800 88.040,120.800 87.600 C 120.800 86.820,120.376 86.558,119.894 87.039 M6.000 90.200 C 6.000 90.750,6.180 91.200,6.400 91.200 C 6.620 91.200,6.800 91.476,6.800 91.813 C 6.800 92.149,7.070 92.529,7.400 92.655 C 7.730 92.782,8.000 93.239,8.000 93.671 C 8.000 94.663,9.047 95.742,9.648 95.370 C 9.961 95.177,9.900 94.976,9.451 94.725 C 9.093 94.524,8.800 94.009,8.800 93.580 C 8.800 93.151,8.620 92.800,8.400 92.800 C 8.180 92.800,8.000 92.440,8.000 92.000 C 8.000 91.560,7.820 91.200,7.600 91.200 C 7.380 91.200,7.200 90.750,7.200 90.200 C 7.200 89.578,6.973 89.200,6.600 89.200 C 6.227 89.200,6.000 89.578,6.000 90.200 M118.800 90.200 C 118.800 90.750,118.620 91.200,118.400 91.200 C 118.180 91.200,118.000 91.560,118.000 92.000 C 118.000 92.440,117.820 92.800,117.600 92.800 C 117.380 92.800,117.200 93.104,117.200 93.475 C 117.200 94.048,117.322 94.020,118.000 93.292 C 118.440 92.820,118.800 92.233,118.800 91.988 C 118.800 91.743,119.070 91.273,119.400 90.943 C 119.730 90.613,120.000 90.086,120.000 89.771 C 120.000 89.457,119.730 89.200,119.400 89.200 C 119.027 89.200,118.800 89.578,118.800 90.200 M115.889 95.205 C 115.510 95.647,115.200 96.352,115.200 96.771 C 115.200 97.190,114.975 97.614,114.700 97.712 C 114.425 97.810,114.323 98.023,114.474 98.185 C 114.941 98.690,116.445 96.982,116.168 96.260 C 115.997 95.815,116.124 95.600,116.557 95.600 C 116.911 95.600,117.200 95.330,117.200 95.000 C 117.200 94.172,116.707 94.249,115.889 95.205 M11.600 99.704 C 11.600 100.326,13.181 101.361,13.539 100.973 C 13.683 100.818,13.575 100.610,13.300 100.512 C 13.025 100.414,12.800 100.078,12.800 99.767 C 12.800 99.455,12.530 99.200,12.200 99.200 C 11.870 99.200,11.600 99.427,11.600 99.704 M112.400 100.600 C 112.400 100.930,112.220 101.200,112.000 101.200 C 111.780 101.200,111.600 101.489,111.600 101.842 C 111.600 102.351,111.806 102.288,112.593 101.542 C 113.734 100.460,113.855 100.000,113.000 100.000 C 112.670 100.000,112.400 100.270,112.400 100.600 M14.400 103.201 C 14.400 103.422,16.381 105.582,18.801 108.001 C 22.713 111.911,24.000 112.942,24.000 112.165 C 24.000 111.858,18.891 106.800,18.581 106.800 C 18.275 106.800,17.200 105.730,17.200 105.425 C 17.200 105.101,14.971 102.800,14.657 102.800 C 14.516 102.800,14.400 102.981,14.400 103.201 M110.400 103.400 C 110.400 103.730,110.670 104.000,111.000 104.000 C 111.330 104.000,111.600 103.730,111.600 103.400 C 111.600 103.070,111.330 102.800,111.000 102.800 C 110.670 102.800,110.400 103.070,110.400 103.400 M107.100 106.814 C 105.965 108.052,105.702 108.800,106.400 108.800 C 106.620 108.800,106.800 108.530,106.800 108.200 C 106.800 107.870,106.993 107.600,107.229 107.600 C 107.464 107.600,107.914 107.343,108.229 107.029 C 108.839 106.418,108.996 105.595,108.500 105.608 C 108.335 105.612,107.705 106.155,107.100 106.814 M103.600 110.400 C 103.283 110.840,102.804 111.200,102.535 111.200 C 101.763 111.200,101.485 111.981,102.164 112.242 C 102.807 112.488,104.000 111.569,104.000 110.829 C 104.000 110.593,104.270 110.400,104.600 110.400 C 104.930 110.400,105.200 110.220,105.200 110.000 C 105.200 109.313,104.204 109.562,103.600 110.400 M24.800 112.800 C 24.800 113.020,24.980 113.200,25.200 113.200 C 25.420 113.200,25.600 113.393,25.600 113.629 C 25.600 114.182,26.618 115.200,27.171 115.200 C 27.407 115.200,27.600 115.007,27.600 114.771 C 27.600 114.218,26.582 113.200,26.029 113.200 C 25.793 113.200,25.600 113.020,25.600 112.800 C 25.600 112.580,25.420 112.400,25.200 112.400 C 24.980 112.400,24.800 112.580,24.800 112.800 M99.500 113.347 C 98.379 114.312,98.057 115.200,98.829 115.200 C 99.382 115.200,100.400 114.182,100.400 113.629 C 100.400 113.393,100.580 113.200,100.800 113.200 C 101.020 113.200,101.200 113.020,101.200 112.800 C 101.200 112.163,100.683 112.330,99.500 113.347 M28.400 115.429 C 28.400 115.821,29.522 116.800,29.971 116.800 C 30.207 116.800,30.400 116.620,30.400 116.400 C 30.400 116.180,30.130 116.000,29.800 116.000 C 29.470 116.000,29.200 115.820,29.200 115.600 C 29.200 115.380,29.020 115.200,28.800 115.200 C 28.580 115.200,28.400 115.303,28.400 115.429 M96.400 115.600 C 96.400 115.820,96.670 116.000,97.000 116.000 C 97.330 116.000,97.600 115.820,97.600 115.600 C 97.600 115.380,97.330 115.200,97.000 115.200 C 96.670 115.200,96.400 115.380,96.400 115.600 M94.500 116.598 C 93.899 117.281,93.848 118.000,94.400 118.000 C 94.620 118.000,94.800 117.730,94.800 117.400 C 94.800 117.070,94.980 116.800,95.200 116.800 C 95.420 116.800,95.600 116.620,95.600 116.400 C 95.600 115.837,95.089 115.929,94.500 116.598 M31.200 117.229 C 31.200 117.934,32.286 118.800,33.171 118.800 C 33.627 118.800,34.000 118.620,34.000 118.400 C 34.000 118.180,33.550 118.000,33.000 118.000 C 32.378 118.000,32.000 117.773,32.000 117.400 C 32.000 117.070,31.820 116.800,31.600 116.800 C 31.380 116.800,31.200 116.993,31.200 117.229 M36.678 119.856 C 36.358 120.175,36.719 120.800,37.224 120.800 C 37.431 120.800,37.600 120.530,37.600 120.200 C 37.600 119.581,37.128 119.405,36.678 119.856 M88.267 119.867 C 87.806 120.327,87.975 120.800,88.600 120.800 C 88.930 120.800,89.200 120.530,89.200 120.200 C 89.200 119.575,88.727 119.406,88.267 119.867 M38.400 121.200 C 38.400 121.420,38.850 121.600,39.400 121.600 C 39.950 121.600,40.400 121.420,40.400 121.200 C 40.400 120.980,39.950 120.800,39.400 120.800 C 38.850 120.800,38.400 120.980,38.400 121.200 M85.600 121.200 C 85.600 121.420,86.050 121.600,86.600 121.600 C 87.150 121.600,87.600 121.420,87.600 121.200 C 87.600 120.980,87.150 120.800,86.600 120.800 C 86.050 120.800,85.600 120.980,85.600 121.200 M41.200 122.000 C 41.200 122.220,41.470 122.400,41.800 122.400 C 42.130 122.400,42.400 122.220,42.400 122.000 C 42.400 121.780,42.130 121.600,41.800 121.600 C 41.470 121.600,41.200 121.780,41.200 122.000 M83.200 122.000 C 83.200 122.220,83.560 122.400,84.000 122.400 C 84.440 122.400,84.800 122.220,84.800 122.000 C 84.800 121.780,84.440 121.600,84.000 121.600 C 83.560 121.600,83.200 121.780,83.200 122.000 M43.200 123.029 C 43.200 123.402,43.472 123.606,43.867 123.529 C 44.870 123.335,45.008 122.400,44.033 122.400 C 43.542 122.400,43.200 122.658,43.200 123.029 M81.200 123.000 C 81.200 123.333,81.556 123.600,82.000 123.600 C 82.444 123.600,82.800 123.333,82.800 123.000 C 82.800 122.667,82.444 122.400,82.000 122.400 C 81.556 122.400,81.200 122.667,81.200 123.000 M46.000 124.000 C 46.000 124.220,46.540 124.400,47.200 124.400 C 47.860 124.400,48.400 124.220,48.400 124.000 C 48.400 123.780,47.860 123.600,47.200 123.600 C 46.540 123.600,46.000 123.780,46.000 124.000 M77.600 124.000 C 77.600 124.220,77.960 124.400,78.400 124.400 C 78.840 124.400,79.200 124.220,79.200 124.000 C 79.200 123.780,78.840 123.600,78.400 123.600 C 77.960 123.600,77.600 123.780,77.600 124.000 M50.400 124.800 C 50.400 125.020,51.120 125.200,52.000 125.200 C 52.880 125.200,53.600 125.020,53.600 124.800 C 53.600 124.580,52.880 124.400,52.000 124.400 C 51.120 124.400,50.400 124.580,50.400 124.800 M72.200 124.800 C 72.049 125.044,72.663 125.200,73.776 125.200 C 74.779 125.200,75.600 125.020,75.600 124.800 C 75.600 124.580,74.891 124.400,74.024 124.400 C 73.157 124.400,72.336 124.580,72.200 124.800 M20.800 137.000 C 20.800 137.444,20.333 137.600,19.000 137.600 C 18.010 137.600,17.200 137.780,17.200 138.000 C 17.200 138.220,16.750 138.400,16.200 138.400 C 15.650 138.400,15.200 138.580,15.200 138.800 C 15.200 139.020,14.840 139.200,14.400 139.200 C 13.960 139.200,13.600 139.380,13.600 139.600 C 13.600 139.820,13.353 140.000,13.050 140.000 C 12.748 140.000,11.813 140.630,10.972 141.400 C 10.131 142.170,9.299 142.800,9.122 142.800 C 8.945 142.800,8.800 142.993,8.800 143.229 C 8.800 143.782,7.782 144.800,7.229 144.800 C 6.993 144.800,6.800 144.945,6.800 145.122 C 6.800 145.299,6.170 146.131,5.400 146.972 C 4.630 147.813,4.000 148.748,4.000 149.050 C 4.000 149.353,3.820 149.600,3.600 149.600 C 3.380 149.600,3.200 149.960,3.200 150.400 C 3.200 150.840,3.020 151.200,2.800 151.200 C 2.580 151.200,2.400 151.811,2.400 152.557 C 2.400 153.395,2.170 154.003,1.800 154.145 C 1.470 154.271,1.200 154.726,1.200 155.154 C 1.200 155.583,0.975 156.008,0.700 156.100 C -0.034 156.345,-0.034 246.055,0.700 246.300 C 0.975 246.392,1.200 246.817,1.200 247.246 C 1.200 247.674,1.470 248.129,1.800 248.255 C 2.170 248.397,2.400 249.005,2.400 249.843 C 2.400 250.589,2.580 251.200,2.800 251.200 C 3.020 251.200,3.200 251.449,3.200 251.754 C 3.200 252.461,4.049 254.104,4.811 254.874 C 5.135 255.201,5.758 255.948,6.195 256.534 C 6.632 257.120,7.217 257.600,7.495 257.600 C 7.773 257.600,8.000 257.788,8.000 258.018 C 8.000 258.561,9.839 260.400,10.382 260.400 C 10.612 260.400,10.800 260.580,10.800 260.800 C 10.800 261.020,11.160 261.200,11.600 261.200 C 12.187 261.200,12.400 261.467,12.400 262.200 C 12.400 263.076,12.573 263.200,13.800 263.200 C 14.570 263.200,15.200 263.380,15.200 263.600 C 15.200 263.820,15.650 264.000,16.200 264.000 C 16.822 264.000,17.200 264.227,17.200 264.600 C 17.200 265.044,17.667 265.200,19.000 265.200 C 19.990 265.200,20.800 265.380,20.800 265.600 C 20.800 265.864,35.733 266.000,64.800 266.000 C 93.867 266.000,108.800 265.864,108.800 265.600 C 108.800 265.380,109.610 265.200,110.600 265.200 C 111.933 265.200,112.400 265.044,112.400 264.600 C 112.400 264.227,112.778 264.000,113.400 264.000 C 113.950 264.000,114.400 263.820,114.400 263.600 C 114.400 263.380,114.715 263.194,115.100 263.187 C 115.965 263.172,117.200 262.271,117.200 261.656 C 117.200 261.405,117.560 261.200,118.000 261.200 C 118.440 261.200,118.800 261.020,118.800 260.800 C 118.800 260.580,118.988 260.400,119.218 260.400 C 119.448 260.400,120.078 259.958,120.618 259.418 C 121.158 258.878,121.600 258.248,121.600 258.018 C 121.600 257.788,121.804 257.600,122.053 257.600 C 122.715 257.600,124.399 255.518,124.400 254.700 C 124.400 254.315,124.670 254.000,125.000 254.000 C 125.358 254.000,125.600 253.632,125.600 253.088 C 125.600 252.587,125.960 251.917,126.400 251.600 C 126.911 251.232,127.200 250.565,127.200 249.754 C 127.200 248.996,127.441 248.393,127.800 248.255 C 128.196 248.103,128.400 247.477,128.400 246.413 C 128.400 245.526,128.580 244.800,128.800 244.800 C 129.064 244.800,129.200 230.000,129.200 201.200 C 129.200 172.400,129.064 157.600,128.800 157.600 C 128.580 157.600,128.400 156.874,128.400 155.987 C 128.400 154.923,128.196 154.297,127.800 154.145 C 127.441 154.007,127.200 153.404,127.200 152.646 C 127.200 151.835,126.911 151.168,126.400 150.800 C 125.960 150.483,125.600 149.897,125.600 149.499 C 125.600 149.101,125.330 148.671,125.000 148.545 C 124.670 148.418,124.400 147.974,124.400 147.557 C 124.400 147.141,124.250 146.800,124.068 146.800 C 123.885 146.800,123.494 146.350,123.200 145.800 C 122.906 145.250,122.502 144.800,122.304 144.800 C 121.890 144.800,120.800 143.785,120.800 143.400 C 120.800 142.985,119.695 142.000,119.229 142.000 C 118.993 142.000,118.800 141.820,118.800 141.600 C 118.800 141.380,118.511 141.200,118.158 141.200 C 117.804 141.200,117.161 140.750,116.729 140.200 C 116.296 139.650,115.595 139.200,115.171 139.200 C 114.747 139.200,114.400 139.020,114.400 138.800 C 114.400 138.580,113.950 138.400,113.400 138.400 C 112.850 138.400,112.400 138.220,112.400 138.000 C 112.400 137.780,111.590 137.600,110.600 137.600 C 109.267 137.600,108.800 137.444,108.800 137.000 C 108.800 136.470,103.644 136.400,64.800 136.400 C 25.956 136.400,20.800 136.470,20.800 137.000 M156.145 137.000 C 155.988 137.407,155.350 137.600,154.157 137.600 C 153.191 137.600,152.400 137.780,152.400 138.000 C 152.400 138.220,151.950 138.400,151.400 138.400 C 150.850 138.400,150.400 138.580,150.400 138.800 C 150.400 139.020,150.040 139.200,149.600 139.200 C 149.160 139.200,148.800 139.380,148.800 139.600 C 148.800 139.820,148.538 140.000,148.218 140.000 C 147.898 140.000,147.186 140.450,146.636 141.000 C 146.086 141.550,145.525 142.000,145.390 142.000 C 145.064 142.000,144.000 143.072,144.000 143.400 C 144.000 143.815,142.895 144.800,142.429 144.800 C 142.193 144.800,141.996 145.205,141.991 145.700 C 141.986 146.224,141.402 147.099,140.591 147.796 C 139.826 148.454,139.200 149.309,139.200 149.696 C 139.200 150.083,139.020 150.400,138.800 150.400 C 138.580 150.400,138.400 150.850,138.400 151.400 C 138.400 151.950,138.220 152.400,138.000 152.400 C 137.780 152.400,137.600 152.741,137.600 153.157 C 137.600 153.574,137.330 154.018,137.000 154.145 C 136.649 154.279,136.400 154.879,136.400 155.587 C 136.400 156.254,136.220 156.800,136.000 156.800 C 135.761 156.800,135.600 158.333,135.600 160.600 C 135.600 162.867,135.439 164.400,135.200 164.400 C 134.936 164.400,134.800 176.925,134.800 201.176 C 134.800 225.263,134.938 238.038,135.200 238.200 C 135.420 238.336,135.600 240.057,135.600 242.024 C 135.600 244.141,135.763 245.600,136.000 245.600 C 136.220 245.600,136.400 246.146,136.400 246.813 C 136.400 247.521,136.649 248.121,137.000 248.255 C 137.330 248.382,137.600 248.916,137.600 249.443 C 137.600 249.969,137.780 250.400,138.000 250.400 C 138.220 250.400,138.400 250.760,138.400 251.200 C 138.400 251.640,138.580 252.000,138.800 252.000 C 139.020 252.000,139.200 252.335,139.200 252.744 C 139.200 253.153,139.650 253.826,140.200 254.239 C 140.750 254.652,141.200 255.217,141.200 255.495 C 141.200 255.773,141.380 256.000,141.600 256.000 C 141.820 256.000,142.000 256.360,142.000 256.800 C 142.000 257.244,142.267 257.600,142.600 257.600 C 142.930 257.600,143.200 257.788,143.200 258.018 C 143.200 258.561,145.039 260.400,145.582 260.400 C 145.812 260.400,146.000 260.580,146.000 260.800 C 146.000 261.020,146.279 261.200,146.619 261.200 C 146.960 261.200,147.655 261.650,148.165 262.200 C 148.675 262.750,149.386 263.200,149.746 263.200 C 150.106 263.200,150.400 263.380,150.400 263.600 C 150.400 263.820,150.850 264.000,151.400 264.000 C 152.022 264.000,152.400 264.227,152.400 264.600 C 152.400 265.044,152.867 265.200,154.200 265.200 C 155.190 265.200,156.000 265.380,156.000 265.600 C 156.000 265.864,170.933 266.000,200.000 266.000 C 229.067 266.000,244.000 265.864,244.000 265.600 C 244.000 265.380,244.810 265.200,245.800 265.200 C 247.133 265.200,247.600 265.044,247.600 264.600 C 247.600 264.227,247.978 264.000,248.600 264.000 C 249.150 264.000,249.600 263.831,249.600 263.625 C 249.600 263.419,250.185 263.194,250.900 263.125 C 251.896 263.029,252.230 262.790,252.328 262.100 C 252.410 261.522,252.732 261.200,253.228 261.200 C 253.653 261.200,254.000 261.020,254.000 260.800 C 254.000 260.580,254.188 260.400,254.418 260.400 C 254.648 260.400,255.278 259.958,255.818 259.418 C 256.358 258.878,256.800 258.248,256.800 258.018 C 256.800 257.788,257.027 257.600,257.305 257.600 C 257.583 257.600,258.168 257.120,258.605 256.534 C 259.042 255.948,259.665 255.201,259.989 254.874 C 260.751 254.104,261.600 252.461,261.600 251.754 C 261.600 251.449,261.780 251.200,262.000 251.200 C 262.220 251.200,262.400 250.750,262.400 250.200 C 262.400 249.578,262.627 249.200,263.000 249.200 C 263.419 249.200,263.600 248.778,263.600 247.800 C 263.600 247.030,263.780 246.400,264.000 246.400 C 264.220 246.400,264.400 245.410,264.400 244.200 C 264.400 242.990,264.580 242.000,264.800 242.000 C 265.064 242.000,265.200 228.133,265.200 201.200 C 265.200 174.267,265.064 160.400,264.800 160.400 C 264.580 160.400,264.400 159.410,264.400 158.200 C 264.400 156.990,264.220 156.000,264.000 156.000 C 263.780 156.000,263.600 155.370,263.600 154.600 C 263.600 153.622,263.419 153.200,263.000 153.200 C 262.627 153.200,262.400 152.822,262.400 152.200 C 262.400 151.650,262.220 151.200,262.000 151.200 C 261.780 151.200,261.600 150.840,261.600 150.400 C 261.600 149.960,261.420 149.600,261.200 149.600 C 260.980 149.600,260.800 149.265,260.800 148.856 C 260.800 148.447,260.350 147.774,259.800 147.361 C 259.250 146.948,258.800 146.460,258.800 146.276 C 258.800 145.884,257.772 144.800,257.400 144.800 C 257.066 144.800,256.000 143.734,256.000 143.400 C 256.000 143.072,254.936 142.000,254.610 142.000 C 254.475 142.000,253.914 141.550,253.364 141.000 C 252.814 140.450,252.102 140.000,251.782 140.000 C 251.462 140.000,251.200 139.820,251.200 139.600 C 251.200 139.380,250.840 139.200,250.400 139.200 C 249.960 139.200,249.600 139.020,249.600 138.800 C 249.600 138.580,249.150 138.400,248.600 138.400 C 248.050 138.400,247.600 138.220,247.600 138.000 C 247.600 137.780,246.790 137.600,245.800 137.600 C 244.467 137.600,244.000 137.444,244.000 137.000 C 244.000 136.470,238.865 136.400,200.187 136.400 C 161.612 136.400,156.347 136.472,156.145 137.000 M291.200 269.200 C 291.200 269.420,290.390 269.600,289.400 269.600 C 288.067 269.600,287.600 269.756,287.600 270.200 C 287.600 270.611,287.188 270.800,286.288 270.800 C 285.435 270.800,284.775 271.080,284.400 271.600 C 284.083 272.040,283.593 272.400,283.312 272.400 C 283.030 272.400,282.800 272.670,282.800 273.000 C 282.800 273.333,282.444 273.600,282.000 273.600 C 281.560 273.600,281.200 273.780,281.200 274.000 C 281.200 274.220,280.996 274.400,280.747 274.400 C 280.268 274.400,278.401 276.389,278.400 276.900 C 278.400 277.065,278.212 277.200,277.982 277.200 C 277.271 277.200,275.600 279.121,275.600 279.939 C 275.600 280.365,275.330 280.818,275.000 280.945 C 274.670 281.071,274.400 281.501,274.400 281.899 C 274.400 282.297,274.040 282.883,273.600 283.200 C 273.160 283.517,272.800 284.187,272.800 284.688 C 272.800 285.232,272.558 285.600,272.200 285.600 C 271.756 285.600,271.600 286.067,271.600 287.400 C 271.600 288.390,271.420 289.200,271.200 289.200 C 270.980 289.200,270.800 290.179,270.800 291.376 C 270.800 292.573,270.620 293.664,270.400 293.800 C 270.138 293.962,270.000 307.671,270.000 333.624 C 270.000 359.741,270.136 373.200,270.400 373.200 C 270.622 373.200,270.800 374.267,270.800 375.600 C 270.800 376.933,270.978 378.000,271.200 378.000 C 271.420 378.000,271.600 378.726,271.600 379.613 C 271.600 380.677,271.804 381.303,272.200 381.455 C 272.530 381.582,272.800 382.077,272.800 382.554 C 272.800 383.032,273.160 383.683,273.600 384.000 C 274.040 384.317,274.400 384.987,274.400 385.488 C 274.400 386.032,274.642 386.400,275.000 386.400 C 275.333 386.400,275.600 386.756,275.600 387.200 C 275.600 387.640,275.780 388.000,276.000 388.000 C 276.220 388.000,276.400 388.193,276.400 388.429 C 276.400 388.895,277.385 390.000,277.800 390.000 C 278.134 390.000,279.200 391.066,279.200 391.400 C 279.200 391.772,280.284 392.800,280.676 392.800 C 280.860 392.800,281.348 393.250,281.761 393.800 C 282.174 394.350,282.807 394.800,283.168 394.800 C 283.528 394.800,284.083 395.160,284.400 395.600 C 284.775 396.120,285.435 396.400,286.288 396.400 C 287.010 396.400,287.600 396.580,287.600 396.800 C 287.600 397.020,288.410 397.200,289.400 397.200 C 290.733 397.200,291.200 397.356,291.200 397.800 C 291.200 398.330,296.356 398.400,335.200 398.400 C 374.044 398.400,379.200 398.330,379.200 397.800 C 379.200 397.356,379.667 397.200,381.000 397.200 C 381.990 397.200,382.800 397.020,382.800 396.800 C 382.800 396.580,383.250 396.400,383.800 396.400 C 384.350 396.400,384.800 396.220,384.800 396.000 C 384.800 395.780,385.160 395.600,385.600 395.600 C 386.040 395.600,386.400 395.420,386.400 395.200 C 386.400 394.980,386.664 394.800,386.987 394.800 C 387.764 394.800,394.000 388.736,394.000 387.979 C 394.000 387.655,394.450 387.052,395.000 386.639 C 395.550 386.226,396.000 385.553,396.000 385.144 C 396.000 384.735,396.180 384.400,396.400 384.400 C 396.620 384.400,396.800 383.950,396.800 383.400 C 396.800 382.850,396.980 382.400,397.200 382.400 C 397.420 382.400,397.600 381.879,397.600 381.243 C 397.600 380.583,397.858 379.987,398.200 379.855 C 398.530 379.729,398.800 379.274,398.800 378.846 C 398.800 378.417,399.025 377.992,399.300 377.900 C 399.696 377.768,399.800 368.551,399.800 333.600 C 399.800 298.649,399.696 289.432,399.300 289.300 C 399.025 289.208,398.800 288.783,398.800 288.354 C 398.800 287.926,398.530 287.471,398.200 287.345 C 397.830 287.203,397.600 286.595,397.600 285.757 C 397.600 285.011,397.420 284.400,397.200 284.400 C 396.980 284.400,396.800 284.040,396.800 283.600 C 396.800 283.160,396.620 282.800,396.400 282.800 C 396.180 282.800,396.000 282.465,396.000 282.056 C 396.000 281.647,395.550 280.974,395.000 280.561 C 394.450 280.148,394.000 279.480,394.000 279.076 C 394.000 278.271,393.103 277.200,392.429 277.200 C 392.193 277.200,392.000 277.065,392.000 276.900 C 391.999 276.389,390.132 274.400,389.653 274.400 C 389.404 274.400,389.200 274.220,389.200 274.000 C 389.200 273.780,388.921 273.600,388.581 273.600 C 388.240 273.600,387.545 273.150,387.035 272.600 C 386.525 272.050,385.814 271.600,385.454 271.600 C 385.094 271.600,384.800 271.420,384.800 271.200 C 384.800 270.980,384.350 270.800,383.800 270.800 C 383.178 270.800,382.800 270.573,382.800 270.200 C 382.800 269.756,382.333 269.600,381.000 269.600 C 380.010 269.600,379.200 269.420,379.200 269.200 C 379.200 268.936,364.267 268.800,335.200 268.800 C 306.133 268.800,291.200 268.936,291.200 269.200 M20.000 271.200 C 20.000 271.420,19.190 271.600,18.200 271.600 C 17.210 271.600,16.400 271.780,16.400 272.000 C 16.400 272.220,16.130 272.400,15.800 272.400 C 15.470 272.400,15.200 272.670,15.200 273.000 C 15.200 273.333,14.844 273.600,14.400 273.600 C 13.960 273.600,13.600 273.780,13.600 274.000 C 13.600 274.220,13.232 274.400,12.782 274.400 C 12.332 274.400,11.514 274.850,10.964 275.400 C 10.414 275.950,9.702 276.400,9.382 276.400 C 9.062 276.400,8.800 276.682,8.800 277.027 C 8.800 277.372,8.170 278.248,7.400 278.974 C 6.630 279.700,6.000 280.588,6.000 280.947 C 6.000 281.306,5.820 281.600,5.600 281.600 C 5.380 281.600,5.200 281.870,5.200 282.200 C 5.200 282.530,5.007 282.800,4.771 282.800 C 4.066 282.800,3.200 283.886,3.200 284.771 C 3.200 285.227,3.020 285.600,2.800 285.600 C 2.580 285.600,2.400 286.230,2.400 287.000 C 2.400 287.770,2.228 288.400,2.019 288.400 C 0.210 288.400,0.200 288.650,0.200 335.400 C 0.200 382.150,0.210 382.400,2.019 382.400 C 2.228 382.400,2.400 382.850,2.400 383.400 C 2.400 383.950,2.580 384.400,2.800 384.400 C 3.020 384.400,3.200 384.953,3.200 385.629 C 3.200 386.854,3.959 388.000,4.771 388.000 C 5.007 388.000,5.200 388.270,5.200 388.600 C 5.200 388.930,5.380 389.200,5.600 389.200 C 5.820 389.200,6.000 389.481,6.000 389.824 C 6.000 390.756,11.824 396.400,12.785 396.400 C 13.233 396.400,13.600 396.580,13.600 396.800 C 13.600 397.020,13.960 397.200,14.400 397.200 C 14.844 397.200,15.200 397.467,15.200 397.800 C 15.200 398.173,15.578 398.400,16.200 398.400 C 16.750 398.400,17.200 398.580,17.200 398.800 C 17.200 399.020,17.830 399.200,18.600 399.200 C 19.370 399.200,20.000 399.380,20.000 399.600 C 20.000 399.864,35.200 400.000,64.800 400.000 C 94.400 400.000,109.600 399.864,109.600 399.600 C 109.600 399.380,110.230 399.200,111.000 399.200 C 111.770 399.200,112.400 399.020,112.400 398.800 C 112.400 398.580,112.850 398.400,113.400 398.400 C 114.022 398.400,114.400 398.173,114.400 397.800 C 114.400 397.470,114.726 397.200,115.125 397.200 C 115.523 397.200,116.236 396.840,116.708 396.400 C 117.180 395.960,117.764 395.600,118.005 395.600 C 118.685 395.600,123.600 390.524,123.600 389.822 C 123.600 389.480,123.780 389.200,124.000 389.200 C 124.220 389.200,124.400 388.930,124.400 388.600 C 124.400 388.270,124.670 388.000,125.000 388.000 C 125.333 388.000,125.600 387.644,125.600 387.200 C 125.600 386.760,125.780 386.400,126.000 386.400 C 126.220 386.400,126.400 385.950,126.400 385.400 C 126.400 384.850,126.580 384.400,126.800 384.400 C 127.020 384.400,127.200 383.950,127.200 383.400 C 127.200 382.778,127.427 382.400,127.800 382.400 C 128.244 382.400,128.400 381.933,128.400 380.600 C 128.400 379.610,128.580 378.800,128.800 378.800 C 129.064 378.800,129.200 364.067,129.200 335.400 C 129.200 306.733,129.064 292.000,128.800 292.000 C 128.580 292.000,128.400 291.190,128.400 290.200 C 128.400 288.867,128.244 288.400,127.800 288.400 C 127.381 288.400,127.200 287.978,127.200 287.000 C 127.200 286.230,127.020 285.600,126.800 285.600 C 126.580 285.600,126.400 285.330,126.400 285.000 C 126.400 284.670,126.220 284.400,126.000 284.400 C 125.780 284.400,125.600 284.040,125.600 283.600 C 125.600 283.156,125.333 282.800,125.000 282.800 C 124.670 282.800,124.400 282.530,124.400 282.200 C 124.400 281.870,124.220 281.600,124.000 281.600 C 123.780 281.600,123.600 281.320,123.600 280.978 C 123.600 280.276,118.685 275.200,118.005 275.200 C 117.764 275.200,117.180 274.840,116.708 274.400 C 116.236 273.960,115.523 273.600,115.125 273.600 C 114.726 273.600,114.400 273.330,114.400 273.000 C 114.400 272.627,114.022 272.400,113.400 272.400 C 112.850 272.400,112.400 272.220,112.400 272.000 C 112.400 271.780,111.770 271.600,111.000 271.600 C 110.230 271.600,109.600 271.420,109.600 271.200 C 109.600 270.936,94.400 270.800,64.800 270.800 C 35.200 270.800,20.000 270.936,20.000 271.200 M155.200 271.200 C 155.200 271.420,154.570 271.600,153.800 271.600 C 153.030 271.600,152.400 271.780,152.400 272.000 C 152.400 272.220,151.950 272.400,151.400 272.400 C 150.778 272.400,150.400 272.627,150.400 273.000 C 150.400 273.333,150.044 273.600,149.600 273.600 C 149.160 273.600,148.800 273.780,148.800 274.000 C 148.800 274.220,148.530 274.400,148.200 274.400 C 147.870 274.400,147.600 274.580,147.600 274.800 C 147.600 275.020,147.318 275.200,146.974 275.200 C 146.185 275.200,141.200 280.218,141.200 281.012 C 141.200 281.335,141.020 281.600,140.800 281.600 C 140.580 281.600,140.400 281.870,140.400 282.200 C 140.400 282.530,140.130 282.800,139.800 282.800 C 139.470 282.800,139.200 283.149,139.200 283.576 C 139.200 284.003,139.020 284.464,138.800 284.600 C 138.580 284.736,138.400 285.197,138.400 285.624 C 138.400 286.051,138.220 286.400,138.000 286.400 C 137.780 286.400,137.600 286.850,137.600 287.400 C 137.600 288.022,137.373 288.400,137.000 288.400 C 136.581 288.400,136.400 288.822,136.400 289.800 C 136.400 290.570,136.220 291.200,136.000 291.200 C 135.763 291.200,135.600 292.667,135.600 294.800 C 135.600 296.933,135.437 298.400,135.200 298.400 C 134.936 298.400,134.800 311.000,134.800 335.400 C 134.800 359.800,134.936 372.400,135.200 372.400 C 135.437 372.400,135.600 373.867,135.600 376.000 C 135.600 378.133,135.763 379.600,136.000 379.600 C 136.220 379.600,136.400 380.146,136.400 380.813 C 136.400 381.521,136.649 382.121,137.000 382.255 C 137.330 382.382,137.600 382.916,137.600 383.443 C 137.600 383.969,137.780 384.400,138.000 384.400 C 138.220 384.400,138.400 384.642,138.400 384.939 C 138.400 385.741,139.602 388.000,140.029 388.000 C 140.233 388.000,140.400 388.230,140.400 388.512 C 140.400 388.793,140.760 389.283,141.200 389.600 C 141.640 389.917,142.000 390.421,142.000 390.720 C 142.000 391.427,145.373 394.800,146.080 394.800 C 146.379 394.800,146.883 395.160,147.200 395.600 C 147.517 396.040,148.007 396.400,148.288 396.400 C 148.570 396.400,148.800 396.580,148.800 396.800 C 148.800 397.020,149.141 397.200,149.557 397.200 C 149.974 397.200,150.418 397.470,150.545 397.800 C 150.671 398.130,151.141 398.400,151.587 398.400 C 152.034 398.400,152.400 398.580,152.400 398.800 C 152.400 399.020,153.030 399.200,153.800 399.200 C 154.570 399.200,155.200 399.380,155.200 399.600 C 155.200 399.864,170.400 400.000,200.000 400.000 C 229.600 400.000,244.800 399.864,244.800 399.600 C 244.800 399.380,245.430 399.200,246.200 399.200 C 246.970 399.200,247.600 399.020,247.600 398.800 C 247.600 398.580,248.050 398.400,248.600 398.400 C 249.222 398.400,249.600 398.173,249.600 397.800 C 249.600 397.467,249.956 397.200,250.400 397.200 C 250.840 397.200,251.200 397.020,251.200 396.800 C 251.200 396.580,251.568 396.400,252.017 396.400 C 252.509 396.400,254.181 395.053,256.217 393.017 C 258.253 390.981,259.600 389.309,259.600 388.817 C 259.600 388.368,259.793 388.000,260.029 388.000 C 260.818 388.000,261.600 386.868,261.600 385.724 C 261.600 384.981,261.945 384.331,262.600 383.839 C 263.259 383.344,263.600 382.697,263.600 381.944 C 263.600 381.315,263.780 380.800,264.000 380.800 C 264.222 380.800,264.400 379.733,264.400 378.400 C 264.400 377.067,264.578 376.000,264.800 376.000 C 265.064 376.000,265.200 362.200,265.200 335.400 C 265.200 308.600,265.064 294.800,264.800 294.800 C 264.578 294.800,264.400 293.733,264.400 292.400 C 264.400 291.067,264.222 290.000,264.000 290.000 C 263.780 290.000,263.600 289.485,263.600 288.856 C 263.600 288.103,263.259 287.456,262.600 286.961 C 261.945 286.469,261.600 285.819,261.600 285.076 C 261.600 283.932,260.818 282.800,260.029 282.800 C 259.793 282.800,259.600 282.424,259.600 281.964 C 259.600 281.500,258.801 280.352,257.800 279.379 C 256.810 278.417,256.000 277.353,256.000 277.015 C 256.000 276.677,255.738 276.400,255.418 276.400 C 255.098 276.400,254.386 275.950,253.836 275.400 C 253.286 274.850,252.468 274.400,252.018 274.400 C 251.568 274.400,251.200 274.220,251.200 274.000 C 251.200 273.780,250.840 273.600,250.400 273.600 C 249.956 273.600,249.600 273.333,249.600 273.000 C 249.600 272.670,249.330 272.400,249.000 272.400 C 248.670 272.400,248.400 272.220,248.400 272.000 C 248.400 271.780,247.590 271.600,246.600 271.600 C 245.610 271.600,244.800 271.420,244.800 271.200 C 244.800 270.936,229.600 270.800,200.000 270.800 C 170.400 270.800,155.200 270.936,155.200 271.200 M18.200 405.200 C 18.064 405.420,17.526 405.600,17.005 405.600 C 16.484 405.600,15.787 405.870,15.457 406.200 C 15.127 406.530,14.574 406.800,14.229 406.800 C 13.883 406.800,13.600 406.980,13.600 407.200 C 13.600 407.420,13.150 407.600,12.600 407.600 C 11.800 407.600,11.600 407.800,11.600 408.600 C 11.600 409.341,11.388 409.600,10.782 409.600 C 9.931 409.600,8.000 411.253,8.000 411.982 C 8.000 412.212,7.812 412.400,7.582 412.400 C 6.853 412.400,5.200 414.331,5.200 415.182 C 5.200 415.632,5.007 416.000,4.771 416.000 C 4.066 416.000,3.200 417.086,3.200 417.971 C 3.200 418.427,3.020 418.800,2.800 418.800 C 2.580 418.800,2.400 419.411,2.400 420.157 C 2.400 420.995,2.170 421.603,1.800 421.745 C 1.470 421.871,1.200 422.236,1.200 422.554 C 1.200 422.873,0.975 423.208,0.700 423.300 C -0.034 423.545,-0.034 514.455,0.700 514.700 C 0.975 514.792,1.200 515.217,1.200 515.646 C 1.200 516.074,1.470 516.529,1.800 516.655 C 2.159 516.793,2.400 517.396,2.400 518.154 C 2.400 518.965,2.689 519.632,3.200 520.000 C 3.640 520.317,4.000 520.872,4.000 521.232 C 4.000 521.593,4.450 522.226,5.000 522.639 C 5.550 523.052,6.000 523.720,6.000 524.124 C 6.000 524.831,6.872 526.000,7.400 526.000 C 7.734 526.000,8.800 527.066,8.800 527.400 C 8.800 527.928,9.969 528.800,10.676 528.800 C 11.080 528.800,11.748 529.250,12.161 529.800 C 12.574 530.350,13.164 530.800,13.473 530.800 C 13.781 530.800,14.420 531.160,14.892 531.600 C 15.364 532.040,16.238 532.400,16.833 532.400 C 17.428 532.400,18.018 532.670,18.145 533.000 C 18.311 533.433,18.990 533.600,20.587 533.600 C 21.804 533.600,22.800 533.780,22.800 534.000 C 22.800 534.264,37.067 534.400,64.800 534.400 C 92.533 534.400,106.800 534.264,106.800 534.000 C 106.800 533.780,107.430 533.600,108.200 533.600 C 109.178 533.600,109.600 533.419,109.600 533.000 C 109.600 532.581,110.022 532.400,111.000 532.400 C 111.770 532.400,112.400 532.220,112.400 532.000 C 112.400 531.780,112.964 531.600,113.653 531.600 C 114.566 531.600,115.263 531.221,116.226 530.200 C 116.952 529.430,117.828 528.800,118.173 528.800 C 118.518 528.800,118.800 528.620,118.800 528.400 C 118.800 528.180,119.070 528.000,119.400 528.000 C 119.730 528.000,120.000 527.808,120.000 527.573 C 120.000 527.338,120.810 526.369,121.800 525.421 C 122.790 524.472,123.600 523.404,123.600 523.048 C 123.600 522.692,123.780 522.400,124.000 522.400 C 124.220 522.400,124.400 521.950,124.400 521.400 C 124.400 520.850,124.593 520.400,124.829 520.400 C 125.534 520.400,126.400 519.314,126.400 518.429 C 126.400 517.973,126.580 517.600,126.800 517.600 C 127.020 517.600,127.200 516.970,127.200 516.200 C 127.200 515.222,127.381 514.800,127.800 514.800 C 128.244 514.800,128.400 514.333,128.400 513.000 C 128.400 512.010,128.580 511.200,128.800 511.200 C 129.064 511.200,129.200 496.933,129.200 469.200 C 129.200 441.467,129.064 427.200,128.800 427.200 C 128.580 427.200,128.400 426.204,128.400 424.987 C 128.400 423.390,128.233 422.711,127.800 422.545 C 127.470 422.418,127.200 421.884,127.200 421.357 C 127.200 420.831,127.020 420.400,126.800 420.400 C 126.580 420.400,126.400 420.040,126.400 419.600 C 126.400 419.160,126.220 418.800,126.000 418.800 C 125.780 418.800,125.600 418.434,125.600 417.987 C 125.600 417.541,125.330 417.071,125.000 416.945 C 124.670 416.818,124.400 416.374,124.400 415.957 C 124.400 415.541,124.220 415.200,124.000 415.200 C 123.780 415.200,123.600 415.007,123.600 414.771 C 123.600 414.305,122.615 413.200,122.200 413.200 C 121.866 413.200,120.800 412.134,120.800 411.800 C 120.800 411.385,119.695 410.400,119.229 410.400 C 118.993 410.400,118.800 410.220,118.800 410.000 C 118.800 409.780,118.440 409.600,118.000 409.600 C 117.413 409.600,117.200 409.333,117.200 408.600 C 117.200 407.800,117.000 407.600,116.200 407.600 C 115.650 407.600,115.200 407.420,115.200 407.200 C 115.200 406.980,114.834 406.800,114.387 406.800 C 113.941 406.800,113.471 406.530,113.345 406.200 C 113.215 405.862,112.619 405.600,111.981 405.600 C 111.357 405.600,110.736 405.420,110.600 405.200 C 110.438 404.937,94.604 404.800,64.400 404.800 C 34.196 404.800,18.362 404.937,18.200 405.200 M153.200 405.200 C 153.200 405.420,152.654 405.600,151.987 405.600 C 151.279 405.600,150.679 405.849,150.545 406.200 C 150.418 406.530,149.974 406.800,149.557 406.800 C 149.141 406.800,148.800 406.980,148.800 407.200 C 148.800 407.420,148.607 407.600,148.371 407.600 C 147.818 407.600,146.800 408.618,146.800 409.171 C 146.800 409.407,146.432 409.600,145.982 409.600 C 145.131 409.600,143.200 411.253,143.200 411.982 C 143.200 412.212,143.012 412.400,142.782 412.400 C 142.053 412.400,140.400 414.331,140.400 415.182 C 140.400 415.642,140.138 416.000,139.800 416.000 C 139.467 416.000,139.200 416.356,139.200 416.800 C 139.200 417.240,139.020 417.600,138.800 417.600 C 138.580 417.600,138.400 417.870,138.400 418.200 C 138.400 418.530,138.220 418.800,138.000 418.800 C 137.780 418.800,137.600 419.141,137.600 419.557 C 137.600 419.974,137.330 420.418,137.000 420.545 C 136.649 420.679,136.400 421.279,136.400 421.987 C 136.400 422.654,136.220 423.200,136.000 423.200 C 135.778 423.200,135.600 424.267,135.600 425.600 C 135.600 426.933,135.422 428.000,135.200 428.000 C 134.936 428.000,134.800 442.000,134.800 469.200 C 134.800 496.400,134.936 510.400,135.200 510.400 C 135.420 510.400,135.600 511.390,135.600 512.600 C 135.600 513.810,135.780 514.800,136.000 514.800 C 136.220 514.800,136.400 515.346,136.400 516.013 C 136.400 516.721,136.649 517.321,137.000 517.455 C 137.330 517.582,137.600 518.077,137.600 518.554 C 137.600 519.032,137.960 519.683,138.400 520.000 C 138.840 520.317,139.200 520.987,139.200 521.488 C 139.200 522.032,139.442 522.400,139.800 522.400 C 140.133 522.400,140.400 522.756,140.400 523.200 C 140.400 523.640,140.580 524.000,140.800 524.000 C 141.020 524.000,141.200 524.193,141.200 524.429 C 141.200 524.895,142.185 526.000,142.600 526.000 C 142.934 526.000,144.000 527.066,144.000 527.400 C 144.000 527.928,145.169 528.800,145.876 528.800 C 146.280 528.800,146.948 529.250,147.361 529.800 C 147.774 530.350,148.447 530.800,148.856 530.800 C 149.265 530.800,149.600 530.980,149.600 531.200 C 149.600 531.420,150.050 531.600,150.600 531.600 C 151.150 531.600,151.600 531.780,151.600 532.000 C 151.600 532.220,151.941 532.400,152.357 532.400 C 152.774 532.400,153.218 532.670,153.345 533.000 C 153.496 533.394,154.120 533.600,155.164 533.600 C 156.038 533.600,156.864 533.780,157.000 534.000 C 157.162 534.263,171.804 534.400,199.624 534.400 C 227.608 534.400,242.000 534.264,242.000 534.000 C 242.000 533.780,242.816 533.600,243.813 533.600 C 245.055 533.600,245.698 533.411,245.855 533.000 C 245.982 532.670,246.572 532.400,247.167 532.400 C 247.762 532.400,248.636 532.040,249.108 531.600 C 249.580 531.160,250.244 530.800,250.583 530.800 C 250.922 530.800,251.200 530.530,251.200 530.200 C 251.200 529.842,251.568 529.600,252.112 529.600 C 252.613 529.600,253.283 529.240,253.600 528.800 C 253.917 528.360,254.407 528.000,254.688 528.000 C 254.970 528.000,255.200 527.812,255.200 527.583 C 255.200 527.353,256.190 526.199,257.400 525.017 C 258.678 523.770,259.600 522.519,259.600 522.035 C 259.600 521.559,259.858 521.200,260.200 521.200 C 260.533 521.200,260.800 520.844,260.800 520.400 C 260.800 519.960,260.980 519.600,261.200 519.600 C 261.420 519.600,261.600 519.150,261.600 518.600 C 261.600 518.050,261.780 517.600,262.000 517.600 C 262.220 517.600,262.400 517.262,262.400 516.849 C 262.400 516.436,262.670 515.874,263.000 515.600 C 263.345 515.314,263.600 514.442,263.600 513.551 C 263.600 512.698,263.780 512.000,264.000 512.000 C 264.264 512.000,264.400 497.400,264.400 469.000 C 264.400 440.600,264.264 426.000,264.000 426.000 C 263.780 426.000,263.600 425.274,263.600 424.387 C 263.600 423.323,263.396 422.697,263.000 422.545 C 262.670 422.418,262.400 421.884,262.400 421.357 C 262.400 420.831,262.220 420.400,262.000 420.400 C 261.780 420.400,261.600 420.040,261.600 419.600 C 261.600 419.160,261.420 418.800,261.200 418.800 C 260.980 418.800,260.800 418.434,260.800 417.987 C 260.800 417.541,260.530 417.071,260.200 416.945 C 259.870 416.818,259.600 416.374,259.600 415.957 C 259.600 415.541,259.420 415.200,259.200 415.200 C 258.980 415.200,258.800 415.007,258.800 414.771 C 258.800 414.305,257.815 413.200,257.400 413.200 C 257.066 413.200,256.000 412.134,256.000 411.800 C 256.000 411.466,254.934 410.400,254.600 410.400 C 254.266 410.400,253.200 409.334,253.200 409.000 C 253.200 408.443,252.013 407.600,251.229 407.600 C 250.773 407.600,250.400 407.420,250.400 407.200 C 250.400 406.980,250.059 406.800,249.643 406.800 C 249.226 406.800,248.782 406.530,248.655 406.200 C 248.522 405.853,247.924 405.600,247.236 405.600 C 246.582 405.600,245.936 405.420,245.800 405.200 C 245.638 404.937,229.729 404.800,199.376 404.800 C 168.859 404.800,153.200 404.936,153.200 405.200 " stroke="none" fill="#73cb34" fill-rule="evenodd"></path></g></svg>