<svg id="svg" version="1.1" xmlns="http://www.w3.org/2000/svg" xmlns:xlink="http://www.w3.org/1999/xlink" width="400" height="435.0132625994695" viewBox="0, 0, 400,435.0132625994695"><g id="svgg"><path id="path0" d="M0.000 217.507 L 0.000 435.013 200.000 435.013 L 400.000 435.013 400.000 217.507 L 400.000 0.000 200.000 0.000 L 0.000 0.000 0.000 217.507 M98.620 5.860 C 100.327 6.166,102.202 6.582,102.785 6.785 C 103.369 6.988,104.015 7.156,104.221 7.158 C 108.034 7.197,120.399 14.786,125.558 20.254 C 130.015 24.977,135.809 33.970,135.809 36.164 C 135.809 36.348,135.914 36.612,136.041 36.751 C 136.263 36.991,137.114 39.562,138.013 42.706 C 139.920 49.375,139.923 60.608,138.020 67.374 C 137.320 69.861,136.332 72.959,136.090 73.427 C 135.963 73.672,135.536 74.649,135.141 75.597 C 126.761 95.713,103.426 108.247,81.830 104.231 C 79.036 103.712,77.866 103.414,74.934 102.480 C 73.021 101.870,68.821 100.033,67.017 99.017 C 66.164 98.536,65.419 98.143,65.362 98.143 C 65.133 98.143,60.511 94.797,59.019 93.550 C 55.626 90.717,51.625 86.239,49.494 82.891 C 48.937 82.016,48.280 81.001,48.033 80.637 C 47.787 80.272,47.127 79.019,46.567 77.851 C 46.008 76.684,45.391 75.418,45.196 75.038 C 41.392 67.604,40.051 53.079,42.320 43.899 C 42.871 41.669,44.751 35.942,45.236 35.013 C 45.426 34.649,45.853 33.753,46.183 33.024 C 46.932 31.372,49.193 27.498,50.131 26.260 C 50.518 25.749,51.361 24.628,52.004 23.769 C 57.310 16.676,68.580 9.001,76.393 7.161 C 76.903 7.041,77.773 6.806,78.325 6.639 C 83.035 5.217,92.906 4.838,98.620 5.860 M235.279 8.317 C 242.840 10.860,248.053 16.961,250.042 25.597 C 250.778 28.792,250.800 88.813,250.066 91.467 C 249.811 92.391,249.602 93.328,249.602 93.549 C 249.602 93.770,249.441 94.328,249.243 94.787 C 249.046 95.247,248.600 96.280,248.253 97.082 C 245.792 102.774,241.365 106.858,235.431 108.913 L 233.594 109.549 199.469 109.549 L 165.345 109.549 163.508 108.913 C 156.736 106.568,152.316 101.960,149.613 94.430 C 148.332 90.860,148.251 88.472,148.341 57.138 C 148.432 25.657,148.383 26.839,149.796 22.546 C 152.241 15.116,158.631 9.099,165.252 7.992 C 168.414 7.464,233.641 7.767,235.279 8.317 M342.952 8.441 C 350.557 11.186,355.473 17.186,357.306 25.958 C 357.803 28.338,357.825 29.692,357.825 58.728 C 357.825 93.903,357.968 91.732,355.256 97.612 C 352.763 103.015,348.335 107.000,342.725 108.887 L 340.756 109.549 306.797 109.549 L 272.839 109.549 270.703 108.897 C 263.245 106.621,257.572 99.556,255.986 90.568 C 255.581 88.268,255.595 29.357,256.001 26.729 C 256.986 20.370,260.352 14.672,265.153 11.241 C 266.047 10.602,266.873 10.080,266.989 10.080 C 267.105 10.080,267.388 9.920,267.618 9.724 C 268.202 9.229,271.004 8.236,272.568 7.970 C 273.286 7.848,289.032 7.765,307.560 7.786 L 341.247 7.825 342.952 8.441 M126.294 114.755 C 130.810 115.752,136.591 119.769,138.540 123.267 C 138.716 123.581,139.223 124.473,139.668 125.248 C 140.603 126.879,141.101 128.051,141.958 130.637 L 142.573 132.493 142.573 165.385 L 142.573 198.276 141.958 200.133 C 141.101 202.718,140.603 203.891,139.668 205.521 C 139.223 206.296,138.716 207.188,138.540 207.503 C 136.591 211.000,130.810 215.017,126.294 216.014 C 122.999 216.741,59.823 216.663,56.883 215.928 C 53.093 214.981,49.144 212.534,46.762 209.655 C 46.209 208.987,45.487 208.122,45.159 207.734 C 44.107 206.492,42.217 202.333,41.523 199.735 L 40.850 197.215 40.850 165.385 L 40.850 133.554 41.523 131.034 C 42.235 128.370,44.111 124.276,45.231 122.944 C 45.599 122.507,46.384 121.579,46.976 120.882 C 49.272 118.178,53.347 115.690,56.889 114.831 C 59.683 114.153,123.251 114.084,126.294 114.755 M233.986 114.755 C 241.154 116.337,247.852 123.137,249.630 130.637 C 250.635 134.877,250.659 135.688,250.659 165.385 C 250.659 195.082,250.635 195.892,249.630 200.133 C 247.828 207.736,241.253 214.410,233.986 216.014 C 230.788 216.720,167.521 216.666,164.689 215.954 C 156.510 213.901,150.462 206.934,148.770 197.613 C 148.239 194.687,148.239 136.082,148.770 133.156 C 150.452 123.894,156.565 116.815,164.589 114.837 C 167.359 114.154,230.922 114.079,233.986 114.755 M342.339 220.216 C 343.086 220.450,343.921 220.757,344.196 220.898 C 344.470 221.038,345.232 221.427,345.889 221.761 C 351.660 224.701,355.760 230.495,357.306 237.894 C 358.108 241.729,358.112 299.608,357.311 303.499 C 355.530 312.157,350.154 318.417,342.175 321.123 C 340.781 321.596,339.204 321.618,306.764 321.618 L 272.812 321.618 271.035 321.034 C 263.079 318.419,257.675 311.916,256.092 303.050 C 255.590 300.242,255.516 241.771,256.010 238.665 C 257.463 229.532,263.688 222.179,271.682 220.153 C 274.445 219.453,340.091 219.511,342.339 220.216 M127.847 221.882 C 134.567 224.167,139.437 229.438,141.821 237.003 L 142.573 239.390 142.573 272.149 L 142.573 304.907 141.956 306.897 C 139.619 314.437,134.477 320.111,127.984 322.314 L 126.127 322.944 91.777 322.944 L 57.427 322.944 55.570 322.317 C 48.624 319.972,43.655 314.316,41.511 306.315 L 40.850 303.846 40.849 272.111 L 40.849 240.376 41.512 237.824 C 41.877 236.420,42.275 235.064,42.398 234.811 C 46.063 227.224,49.516 224.003,56.631 221.538 C 57.165 221.353,68.711 221.255,91.664 221.241 L 125.902 221.220 127.847 221.882 M235.540 221.882 C 240.212 223.471,244.034 226.509,246.687 230.742 C 247.517 232.067,247.890 232.831,249.243 235.982 C 249.441 236.441,249.602 236.999,249.602 237.220 C 249.602 237.442,249.811 238.379,250.066 239.302 C 250.800 241.956,250.778 301.978,250.042 305.172 C 248.080 313.691,242.963 319.792,235.676 322.304 L 233.820 322.944 199.337 322.944 L 164.854 322.944 162.997 322.251 C 155.625 319.498,151.071 313.858,148.777 304.642 C 148.527 303.636,148.424 296.175,148.352 273.763 C 148.240 239.116,148.214 239.580,150.608 233.820 C 152.906 228.290,157.869 223.678,163.474 221.863 L 165.385 221.244 199.489 221.232 L 233.594 221.220 235.540 221.882 M127.473 328.222 C 133.408 330.277,137.834 334.362,140.296 340.053 C 140.643 340.855,141.088 341.888,141.286 342.348 C 141.483 342.807,141.645 343.365,141.645 343.586 C 141.645 343.808,141.853 344.745,142.109 345.668 C 142.842 348.322,142.820 408.344,142.084 411.538 C 140.095 420.174,134.882 426.276,127.321 428.818 C 125.560 429.410,61.749 429.745,57.806 429.183 C 49.662 428.023,43.058 420.954,40.826 411.008 C 40.541 409.739,40.452 403.447,40.384 379.997 C 40.293 348.664,40.374 346.276,41.656 342.706 C 44.451 334.916,48.822 330.518,56.366 327.904 C 56.900 327.719,68.446 327.621,91.399 327.607 L 125.637 327.586 127.473 328.222 M235.033 328.249 C 240.643 330.135,245.071 334.120,247.564 339.524 C 250.276 345.403,250.133 343.232,250.133 378.407 C 250.133 407.443,250.111 408.798,249.614 411.178 C 247.959 419.099,243.810 424.741,237.401 427.789 C 234.037 429.388,236.007 429.310,198.806 429.310 L 164.589 429.310 162.467 428.550 C 161.300 428.131,160.156 427.624,159.926 427.422 C 159.696 427.221,159.412 427.056,159.297 427.056 C 159.181 427.056,158.355 426.533,157.461 425.894 C 152.660 422.463,149.293 416.765,148.309 410.406 C 147.902 407.778,147.889 348.867,148.294 346.568 C 149.865 337.665,155.494 330.592,162.865 328.260 L 164.854 327.630 198.959 327.608 L 233.064 327.586 235.033 328.249 " stroke="none" fill="#fcfcfc" fill-rule="evenodd"></path><path id="path1" d="M164.973 8.089 C 157.372 9.604,150.751 16.867,148.974 25.637 C 148.337 28.781,148.315 88.421,148.950 91.512 C 150.690 99.981,156.523 106.850,163.753 108.944 L 165.843 109.549 199.416 109.549 C 232.791 109.549,233.002 109.546,234.996 108.988 C 243.395 106.639,249.337 98.834,250.399 88.758 C 250.735 85.567,250.735 31.674,250.399 28.484 C 249.305 18.101,242.531 9.749,233.859 8.089 C 230.979 7.538,167.736 7.538,164.973 8.089 M272.281 8.077 C 264.050 9.836,257.767 16.990,256.103 26.500 C 255.524 29.814,255.513 87.610,256.092 90.849 C 257.730 100.020,263.841 107.168,271.740 109.152 C 274.130 109.752,339.417 109.749,341.788 109.149 C 348.233 107.516,353.919 101.957,356.303 94.960 C 357.746 90.724,357.692 92.132,357.692 58.488 L 357.692 27.188 357.088 24.823 C 355.094 17.027,349.864 10.968,343.044 8.555 L 340.981 7.825 307.427 7.781 C 281.012 7.747,273.534 7.810,272.281 8.077 M56.989 114.861 C 51.169 116.293,46.322 120.297,43.513 125.995 C 43.045 126.943,42.551 127.930,42.414 128.188 C 42.277 128.446,41.869 129.878,41.507 131.371 L 40.849 134.085 40.849 165.385 L 40.849 196.684 41.507 199.398 C 41.869 200.891,42.277 202.323,42.414 202.581 C 42.551 202.839,43.045 203.826,43.513 204.775 C 46.352 210.534,51.194 214.502,57.114 215.922 C 60.520 216.738,123.063 216.731,126.472 215.914 C 133.698 214.182,139.272 208.535,141.842 200.342 L 142.573 198.011 142.573 165.385 L 142.573 132.759 141.842 130.428 C 139.272 122.235,133.698 116.587,126.472 114.855 C 123.141 114.057,60.239 114.062,56.989 114.861 M164.721 114.855 C 157.246 116.708,151.478 122.748,149.274 131.034 L 148.674 133.289 148.674 165.385 L 148.674 197.480 149.261 199.679 C 151.511 208.112,157.252 214.110,164.806 215.922 C 168.293 216.758,231.014 216.733,234.298 215.894 C 243.123 213.641,249.304 205.783,250.395 195.430 C 250.738 192.176,250.739 138.603,250.396 135.350 C 249.291 124.865,243.032 116.995,234.085 114.839 C 230.853 114.060,167.870 114.075,164.721 114.855 M272.281 220.058 C 265.577 221.472,259.450 227.285,257.074 234.483 C 255.708 238.620,255.713 238.508,255.713 270.690 C 255.713 302.761,255.715 302.827,257.041 306.764 C 258.914 312.325,263.001 317.224,267.743 319.592 C 272.135 321.785,268.913 321.618,306.764 321.618 L 340.451 321.618 342.175 321.043 C 349.822 318.493,354.677 313.190,356.967 304.886 L 357.692 302.255 357.692 270.822 L 357.692 239.390 357.065 236.870 C 355.004 228.593,349.634 222.639,342.042 220.214 C 340.097 219.593,275.175 219.447,272.281 220.058 M57.692 221.396 C 49.632 223.204,43.726 229.310,41.483 238.153 L 40.839 240.692 40.910 272.667 L 40.981 304.642 41.609 306.764 C 43.853 314.346,48.691 319.778,55.353 322.192 L 57.427 322.944 91.512 322.944 C 128.546 322.944,126.596 323.021,129.973 321.430 C 136.630 318.295,141.451 311.526,142.437 303.931 C 142.785 301.252,142.777 242.607,142.428 240.195 C 141.239 231.967,135.658 224.750,128.440 222.103 L 126.393 221.353 92.308 221.315 C 73.561 221.294,57.984 221.330,57.692 221.396 M164.589 221.605 C 156.712 223.653,150.780 230.349,148.950 239.257 C 148.339 242.231,148.335 302.030,148.945 305.040 C 150.812 314.247,157.720 321.584,165.678 322.812 C 166.917 323.003,178.190 323.070,200.663 323.019 L 233.820 322.944 235.894 322.192 C 244.015 319.249,249.389 311.874,250.399 302.286 C 250.734 299.107,250.735 245.203,250.401 242.026 C 249.379 232.333,243.892 224.820,235.733 221.945 L 234.085 221.364 200.000 221.312 C 172.757 221.271,165.649 221.330,164.589 221.605 M55.702 328.204 C 48.532 330.327,42.721 337.210,40.993 345.623 C 40.358 348.714,40.379 408.354,41.016 411.498 C 42.818 420.390,49.449 427.578,57.224 429.065 C 60.240 429.642,122.876 429.625,125.901 429.046 C 134.574 427.387,141.347 419.034,142.442 408.652 C 142.778 405.461,142.778 351.568,142.442 348.377 C 141.380 338.301,135.437 330.496,127.039 328.147 C 125.043 327.589,124.857 327.586,91.362 327.600 L 57.692 327.615 55.702 328.204 M163.926 328.000 C 156.096 330.031,150.026 337.180,148.399 346.286 C 147.821 349.525,147.831 407.321,148.411 410.635 C 150.129 420.458,156.887 427.857,165.347 429.179 C 166.688 429.389,176.879 429.451,200.265 429.393 L 233.289 429.310 235.352 428.581 C 242.172 426.167,247.402 420.108,249.395 412.312 L 250.000 409.947 250.000 378.647 C 250.000 345.003,250.054 346.411,248.611 342.175 C 246.227 335.178,240.540 329.620,234.095 327.987 C 231.791 327.403,166.180 327.415,163.926 328.000 " stroke="none" fill="#74cc34" fill-rule="evenodd"></path><path id="path2" d="M81.906 5.853 C 80.489 6.119,78.877 6.472,78.325 6.639 C 77.773 6.806,76.903 7.041,76.393 7.161 C 68.580 9.001,57.310 16.676,52.004 23.769 C 51.361 24.628,50.518 25.749,50.131 26.260 C 49.193 27.498,46.932 31.372,46.183 33.024 C 45.853 33.753,45.426 34.649,45.236 35.013 C 44.751 35.942,42.871 41.669,42.320 43.899 C 40.051 53.079,41.392 67.604,45.196 75.038 C 45.391 75.418,46.008 76.684,46.567 77.851 C 47.127 79.019,47.787 80.272,48.033 80.637 C 48.280 81.001,48.937 82.016,49.494 82.891 C 51.625 86.239,55.626 90.717,59.019 93.550 C 60.511 94.797,65.133 98.143,65.362 98.143 C 65.419 98.143,66.164 98.536,67.017 99.017 C 71.193 101.368,76.521 103.244,81.830 104.231 C 103.426 108.247,126.761 95.713,135.141 75.597 C 135.536 74.649,135.963 73.672,136.090 73.427 C 136.332 72.959,137.320 69.861,138.020 67.374 C 139.923 60.608,139.920 49.375,138.013 42.706 C 137.114 39.562,136.263 36.991,136.041 36.751 C 135.914 36.612,135.809 36.348,135.809 36.164 C 135.809 33.970,130.015 24.977,125.558 20.254 C 120.399 14.786,108.034 7.197,104.221 7.158 C 104.015 7.156,103.369 6.988,102.785 6.785 C 98.492 5.291,87.524 4.801,81.906 5.853 M148.404 58.753 C 148.404 74.801,148.436 81.327,148.475 73.255 C 148.514 65.184,148.514 52.054,148.475 44.078 C 148.436 36.102,148.404 42.706,148.404 58.753 M148.404 165.385 C 148.404 181.432,148.436 187.958,148.475 179.887 C 148.514 171.815,148.514 158.685,148.475 150.709 C 148.436 142.733,148.404 149.337,148.404 165.385 M155.288 226.857 L 154.509 227.719 155.371 226.940 C 155.845 226.511,156.233 226.123,156.233 226.078 C 156.233 225.873,156.015 226.053,155.288 226.857 M148.404 272.149 C 148.404 288.269,148.436 294.864,148.475 286.804 C 148.514 278.743,148.514 265.554,148.475 257.493 C 148.436 249.433,148.404 256.028,148.404 272.149 M40.446 378.382 C 40.446 394.430,40.478 400.956,40.517 392.884 C 40.556 384.813,40.556 371.683,40.517 363.706 C 40.478 355.730,40.446 362.334,40.446 378.382 " stroke="none" fill="#d30404" fill-rule="evenodd"></path></g></svg>