<svg id="svg" version="1.1" xmlns="http://www.w3.org/2000/svg" xmlns:xlink="http://www.w3.org/1999/xlink" width="400" height="208.96" viewBox="0, 0, 400,208.96"><g id="svgg"><path id="path0" d="M0.022 50.042 C 0.035 79.571,0.104 99.503,0.189 98.667 C 0.269 97.888,0.491 96.350,0.683 95.250 C 0.875 94.150,1.044 93.049,1.060 92.803 C 1.075 92.557,1.138 92.306,1.199 92.245 C 1.260 92.184,1.273 92.036,1.227 91.917 C 1.181 91.798,1.221 91.653,1.315 91.595 C 1.409 91.537,1.443 91.379,1.392 91.245 C 1.340 91.110,1.385 91.000,1.492 91.000 C 1.599 91.000,1.642 90.928,1.587 90.839 C 1.412 90.556,2.983 85.383,3.740 83.750 C 3.868 83.475,4.343 82.313,4.796 81.167 C 5.575 79.197,7.080 76.015,7.318 75.833 C 7.378 75.787,7.980 74.775,8.655 73.583 C 9.884 71.413,11.910 68.280,12.404 67.787 C 12.548 67.642,12.667 67.451,12.667 67.363 C 12.667 67.275,12.784 67.157,12.927 67.102 C 13.071 67.047,13.141 66.926,13.083 66.833 C 13.026 66.740,13.096 66.619,13.239 66.564 C 13.383 66.509,13.500 66.389,13.500 66.298 C 13.500 66.120,14.420 64.866,14.763 64.577 C 14.876 64.481,15.546 63.694,16.252 62.827 C 20.098 58.102,25.981 52.325,31.167 48.179 C 32.129 47.410,33.029 46.656,33.167 46.504 C 33.559 46.071,35.626 44.511,36.086 44.302 C 36.314 44.198,36.500 44.050,36.500 43.973 C 36.500 43.896,36.571 43.833,36.658 43.833 C 36.745 43.833,37.026 43.637,37.283 43.396 C 37.540 43.156,39.550 41.770,41.750 40.316 C 43.950 38.863,45.938 37.523,46.167 37.339 C 46.396 37.155,46.677 37.003,46.792 37.002 C 46.906 37.001,47.000 36.925,47.000 36.833 C 47.000 36.742,47.114 36.667,47.254 36.667 C 47.474 36.667,48.766 35.922,49.000 35.660 C 49.168 35.472,52.682 33.479,54.606 32.481 C 55.693 31.917,56.696 31.359,56.833 31.241 C 57.338 30.808,68.451 25.443,70.293 24.744 C 70.867 24.526,71.879 24.090,72.543 23.776 C 73.207 23.461,74.612 22.851,75.667 22.419 C 76.721 21.988,77.808 21.535,78.083 21.414 C 78.741 21.123,79.386 20.926,79.542 20.967 C 79.610 20.985,79.667 20.921,79.667 20.823 C 79.667 20.726,79.726 20.684,79.798 20.728 C 79.871 20.773,80.152 20.705,80.423 20.577 C 81.891 19.886,90.333 16.791,90.333 16.944 C 90.333 16.997,90.446 16.947,90.583 16.833 C 90.721 16.719,90.833 16.669,90.833 16.722 C 90.833 16.820,91.970 16.463,92.583 16.173 C 93.152 15.905,101.778 13.169,101.980 13.194 C 102.037 13.201,102.140 13.188,102.208 13.166 C 102.277 13.143,102.408 13.106,102.500 13.083 C 102.592 13.060,102.685 13.026,102.708 13.007 C 102.731 12.988,102.900 12.954,103.083 12.932 C 103.267 12.910,104.054 12.696,104.833 12.455 C 108.598 11.293,116.957 9.121,117.167 9.250 C 117.246 9.299,117.355 9.266,117.410 9.177 C 117.466 9.088,117.613 9.054,117.738 9.102 C 117.864 9.150,118.017 9.108,118.078 9.009 C 118.139 8.909,118.247 8.863,118.316 8.906 C 118.385 8.949,118.924 8.869,119.513 8.729 C 125.268 7.360,135.464 5.300,135.862 5.426 C 136.040 5.482,136.167 5.440,136.167 5.325 C 136.167 5.210,136.305 5.164,136.500 5.215 C 136.683 5.263,136.878 5.229,136.933 5.140 C 136.989 5.050,137.144 5.020,137.279 5.071 C 137.414 5.123,139.060 4.903,140.937 4.582 C 146.927 3.558,157.933 2.066,160.584 1.919 C 161.226 1.884,161.882 1.804,162.041 1.743 C 162.201 1.682,162.632 1.660,162.999 1.695 C 163.366 1.730,163.667 1.694,163.667 1.614 C 163.667 1.534,164.060 1.494,164.542 1.524 C 165.023 1.553,165.516 1.515,165.637 1.438 C 165.758 1.362,166.189 1.349,166.595 1.410 C 167.120 1.488,167.333 1.463,167.333 1.320 C 167.333 1.178,167.574 1.149,168.162 1.218 C 168.665 1.278,169.033 1.248,169.098 1.143 C 169.157 1.047,169.403 1.008,169.645 1.056 C 169.886 1.103,172.296 0.993,175.000 0.810 C 177.704 0.628,182.017 0.381,184.583 0.262 C 188.535 0.078,174.750 0.042,94.625 0.023 L 0.000 0.000 0.022 50.042 M215.417 0.262 C 217.983 0.381,222.296 0.628,225.000 0.810 C 227.704 0.993,230.114 1.103,230.355 1.056 C 230.597 1.008,230.843 1.047,230.902 1.143 C 230.967 1.248,231.335 1.278,231.838 1.218 C 232.426 1.149,232.667 1.178,232.667 1.320 C 232.667 1.463,232.880 1.488,233.405 1.410 C 233.811 1.349,234.242 1.362,234.363 1.438 C 234.484 1.515,234.977 1.553,235.458 1.524 C 235.940 1.494,236.333 1.532,236.333 1.610 C 236.333 1.687,236.745 1.724,237.250 1.693 C 237.754 1.662,238.167 1.699,238.168 1.776 C 238.169 1.853,238.675 1.928,239.293 1.943 C 241.496 1.994,252.582 3.474,259.042 4.578 C 260.931 4.901,262.586 5.123,262.721 5.071 C 262.856 5.020,263.011 5.050,263.067 5.140 C 263.122 5.229,263.317 5.263,263.500 5.215 C 263.695 5.164,263.833 5.210,263.833 5.325 C 263.833 5.440,263.960 5.482,264.138 5.426 C 264.536 5.300,274.732 7.360,280.487 8.729 C 281.076 8.869,281.615 8.949,281.684 8.906 C 281.753 8.863,281.861 8.909,281.922 9.009 C 281.983 9.108,282.136 9.150,282.262 9.102 C 282.387 9.054,282.534 9.088,282.590 9.177 C 282.645 9.266,282.754 9.299,282.833 9.250 C 283.053 9.114,292.677 11.629,295.642 12.598 C 296.316 12.818,296.929 12.960,297.005 12.913 C 297.081 12.866,297.191 12.905,297.250 13.000 C 297.309 13.095,297.421 13.132,297.500 13.083 C 297.579 13.035,297.691 13.072,297.750 13.167 C 297.809 13.261,297.915 13.303,297.986 13.259 C 298.057 13.215,298.964 13.439,300.001 13.758 C 302.742 14.599,307.030 15.998,307.417 16.177 C 307.767 16.339,309.113 16.815,309.252 16.827 C 309.297 16.830,309.352 16.839,309.375 16.846 C 309.398 16.853,309.567 16.887,309.751 16.922 C 310.362 17.038,318.484 20.059,319.577 20.576 C 319.848 20.705,320.129 20.773,320.202 20.728 C 320.274 20.684,320.333 20.710,320.333 20.788 C 320.333 20.866,320.476 20.940,320.650 20.953 C 320.825 20.966,321.294 21.125,321.692 21.305 C 322.091 21.486,323.467 22.062,324.750 22.585 C 326.033 23.108,327.163 23.601,327.259 23.679 C 327.356 23.757,328.256 24.154,329.259 24.561 C 332.152 25.734,342.586 30.747,343.167 31.242 C 343.304 31.359,344.354 31.943,345.500 32.540 C 347.686 33.678,350.997 35.581,351.891 36.212 C 352.180 36.416,352.524 36.607,352.655 36.635 C 352.892 36.686,353.841 37.303,354.000 37.509 C 354.046 37.568,354.158 37.647,354.250 37.683 C 355.263 38.089,366.039 45.624,366.833 46.483 C 367.240 46.923,369.629 48.833,369.772 48.833 C 369.845 48.833,370.057 49.013,370.244 49.232 C 370.431 49.452,371.483 50.416,372.583 51.375 C 375.462 53.886,382.500 60.923,382.500 61.291 C 382.500 61.377,384.856 64.191,385.186 64.499 C 385.537 64.826,387.000 66.776,387.000 66.916 C 387.000 66.975,387.115 67.139,387.255 67.279 C 387.730 67.754,390.631 72.241,391.601 74.000 C 392.131 74.962,392.616 75.787,392.678 75.833 C 392.986 76.060,394.680 79.731,395.677 82.333 C 395.976 83.112,396.273 83.825,396.338 83.917 C 396.727 84.469,398.923 91.799,398.751 91.972 C 398.706 92.016,398.752 92.152,398.853 92.274 C 398.955 92.396,398.995 92.607,398.943 92.743 C 398.891 92.878,398.921 93.034,399.010 93.090 C 399.099 93.145,399.136 93.247,399.093 93.318 C 399.049 93.388,399.160 94.302,399.340 95.348 C 399.519 96.394,399.731 97.888,399.811 98.667 C 399.896 99.502,399.965 79.549,399.978 50.042 L 400.000 0.000 305.375 0.023 C 225.250 0.042,211.465 0.078,215.417 0.262 M178.586 26.375 C 178.548 26.490,178.056 28.871,177.494 31.667 C 176.931 34.462,176.103 38.503,175.654 40.645 C 175.205 42.787,174.876 44.601,174.922 44.675 C 174.968 44.749,174.939 44.851,174.859 44.901 C 174.778 44.951,174.708 45.275,174.703 45.621 C 174.698 45.967,174.122 48.987,173.423 52.333 C 171.628 60.927,170.971 64.187,170.939 64.667 C 170.923 64.896,170.851 65.177,170.779 65.292 C 170.706 65.406,170.693 65.575,170.750 65.667 C 170.807 65.758,170.800 65.920,170.735 66.025 C 170.670 66.130,170.589 66.524,170.555 66.900 C 170.521 67.276,170.420 67.608,170.329 67.639 C 170.239 67.670,170.204 67.758,170.252 67.836 C 170.343 67.985,169.667 71.471,168.004 79.413 C 167.448 82.069,167.029 84.335,167.073 84.449 C 167.116 84.563,167.084 84.698,167.000 84.750 C 166.916 84.802,166.887 84.947,166.935 85.072 C 166.983 85.197,166.940 85.351,166.838 85.414 C 166.736 85.477,166.697 85.665,166.750 85.833 C 166.803 86.001,166.768 86.188,166.671 86.247 C 166.574 86.307,166.537 86.425,166.589 86.510 C 166.642 86.594,166.154 89.233,165.505 92.373 C 163.218 103.450,162.957 104.746,162.934 105.162 C 162.921 105.394,162.855 105.670,162.788 105.777 C 162.721 105.883,162.711 106.089,162.767 106.235 C 162.823 106.381,162.796 106.500,162.708 106.500 C 162.619 106.500,162.582 106.688,162.626 106.917 C 162.674 107.170,162.629 107.333,162.510 107.333 C 162.402 107.333,162.359 107.406,162.413 107.495 C 162.505 107.643,161.713 111.690,159.735 121.167 C 159.305 123.229,158.956 125.160,158.960 125.458 C 158.964 125.756,158.898 126.000,158.814 126.000 C 158.729 126.000,158.707 126.188,158.765 126.417 C 158.832 126.683,158.799 126.833,158.675 126.833 C 158.568 126.833,158.523 126.902,158.575 126.987 C 158.648 127.104,157.259 134.309,156.749 136.458 L 156.660 136.833 169.580 136.833 C 176.686 136.833,182.501 136.777,182.502 136.708 C 182.503 136.640,183.134 133.554,183.905 129.852 C 184.675 126.149,185.266 123.018,185.218 122.893 C 185.170 122.769,185.222 122.667,185.334 122.667 C 185.466 122.667,185.500 122.523,185.432 122.250 C 185.370 122.006,185.399 121.833,185.500 121.833 C 185.601 121.833,185.630 121.661,185.568 121.417 C 185.502 121.150,185.534 121.000,185.658 121.000 C 185.765 121.000,185.810 120.930,185.757 120.845 C 185.705 120.760,186.456 116.879,187.425 112.220 C 188.395 107.562,189.199 103.506,189.211 103.208 C 189.223 102.910,189.302 102.667,189.386 102.667 C 189.470 102.667,189.500 102.517,189.452 102.333 C 189.404 102.150,189.434 101.958,189.518 101.905 C 189.603 101.853,189.632 101.746,189.584 101.667 C 189.535 101.588,190.330 97.525,191.351 92.637 C 192.371 87.749,193.212 83.506,193.220 83.208 C 193.227 82.910,193.302 82.667,193.386 82.667 C 193.470 82.667,193.500 82.517,193.452 82.333 C 193.404 82.150,193.429 81.960,193.508 81.911 C 193.587 81.863,193.620 81.731,193.581 81.620 C 193.542 81.508,193.790 80.067,194.133 78.417 L 194.756 75.417 206.336 75.371 C 218.755 75.322,219.249 75.349,221.389 76.186 C 224.355 77.346,224.939 80.202,223.613 87.062 C 223.279 88.791,223.046 90.273,223.096 90.353 C 223.146 90.434,223.105 90.500,223.007 90.500 C 222.898 90.500,222.868 90.665,222.932 90.917 C 223.000 91.191,222.967 91.333,222.832 91.333 C 222.710 91.333,222.663 91.467,222.715 91.667 C 222.763 91.850,222.733 92.042,222.648 92.095 C 222.564 92.147,222.537 92.258,222.589 92.342 C 222.672 92.477,221.650 97.892,219.648 107.917 C 219.282 109.750,218.966 111.475,218.945 111.750 C 218.925 112.025,218.854 112.337,218.787 112.443 C 218.720 112.550,218.708 112.748,218.761 112.885 C 218.813 113.021,218.775 113.183,218.675 113.245 C 218.576 113.306,218.537 113.424,218.588 113.508 C 218.639 113.591,218.036 116.942,217.246 120.954 C 216.457 124.967,215.598 129.332,215.339 130.655 C 215.079 131.978,214.905 133.159,214.951 133.280 C 214.998 133.401,214.947 133.500,214.838 133.500 C 214.705 133.500,214.676 133.664,214.750 134.000 C 214.810 134.275,214.798 134.500,214.722 134.500 C 214.646 134.500,214.577 134.706,214.569 134.958 C 214.562 135.210,214.496 135.735,214.423 136.125 L 214.291 136.833 227.905 136.833 C 236.939 136.833,241.485 136.777,241.417 136.667 C 241.360 136.575,241.365 136.417,241.428 136.315 C 241.491 136.213,241.563 135.857,241.588 135.523 C 241.613 135.190,241.908 133.379,242.243 131.500 C 243.597 123.911,244.009 121.603,244.584 118.374 C 244.914 116.517,245.139 114.923,245.083 114.832 C 245.026 114.741,245.066 114.667,245.170 114.667 C 245.294 114.667,245.322 114.494,245.250 114.167 C 245.176 113.829,245.205 113.667,245.340 113.667 C 245.457 113.667,245.503 113.529,245.452 113.333 C 245.404 113.150,245.438 112.955,245.527 112.900 C 245.616 112.845,245.648 112.691,245.597 112.559 C 245.507 112.323,245.920 109.880,248.114 97.667 C 248.716 94.321,249.208 91.302,249.208 90.958 C 249.209 90.615,249.283 90.333,249.373 90.333 C 249.463 90.333,249.490 90.151,249.434 89.927 C 249.378 89.703,249.409 89.473,249.502 89.415 C 249.596 89.358,249.630 89.242,249.579 89.159 C 249.527 89.076,249.860 86.887,250.319 84.296 C 251.846 75.672,251.762 72.425,249.914 68.525 C 249.595 67.851,249.371 67.241,249.416 67.168 C 249.461 67.095,249.386 66.992,249.249 66.939 C 249.112 66.887,249.000 66.698,249.000 66.519 C 249.000 66.341,248.943 66.169,248.874 66.139 C 248.804 66.108,248.346 65.538,247.856 64.872 C 245.943 62.273,240.037 57.978,238.379 57.979 C 238.359 57.979,237.897 57.804,237.354 57.592 C 235.817 56.989,233.081 56.211,231.163 55.831 C 226.607 54.927,226.967 54.946,212.485 54.845 L 198.887 54.750 200.091 48.673 C 200.754 45.331,201.262 42.507,201.220 42.398 C 201.178 42.289,201.227 42.149,201.329 42.086 C 201.430 42.023,201.470 41.835,201.417 41.667 C 201.363 41.499,201.399 41.312,201.496 41.253 C 201.593 41.193,201.630 41.075,201.578 40.992 C 201.527 40.908,202.126 37.612,202.909 33.667 C 203.692 29.721,204.333 26.420,204.333 26.330 C 204.333 26.065,178.675 26.110,178.586 26.375 M77.960 56.203 C 77.810 56.962,77.268 59.608,76.757 62.083 C 75.293 69.174,75.003 70.704,75.098 70.857 C 75.147 70.936,75.105 71.000,75.007 71.000 C 74.898 71.000,74.868 71.165,74.932 71.417 C 74.999 71.684,74.966 71.833,74.840 71.833 C 74.723 71.833,74.685 71.962,74.746 72.153 C 74.801 72.328,74.768 72.521,74.671 72.581 C 74.574 72.641,74.533 72.752,74.580 72.828 C 74.664 72.964,73.925 76.734,71.995 86.007 C 71.450 88.624,70.971 91.024,70.930 91.341 C 70.889 91.657,70.840 91.917,70.821 91.917 C 70.802 91.917,70.767 92.179,70.743 92.500 C 70.720 92.821,70.510 94.021,70.277 95.167 C 69.810 97.463,68.335 104.633,67.499 108.667 C 67.205 110.087,66.952 111.438,66.937 111.667 C 66.922 111.896,66.851 112.177,66.779 112.292 C 66.706 112.406,66.693 112.575,66.750 112.667 C 66.807 112.758,66.800 112.920,66.735 113.025 C 66.670 113.130,66.589 113.524,66.555 113.900 C 66.521 114.276,66.420 114.608,66.329 114.639 C 66.239 114.670,66.206 114.762,66.257 114.844 C 66.349 114.994,65.965 116.969,63.931 126.820 C 63.336 129.700,62.887 132.119,62.934 132.195 C 62.981 132.271,62.960 132.427,62.888 132.542 C 62.815 132.656,62.745 132.938,62.732 133.167 C 62.710 133.556,62.208 136.043,59.888 147.250 C 59.376 149.725,58.947 151.938,58.934 152.167 C 58.921 152.396,58.855 152.670,58.788 152.777 C 58.721 152.883,58.711 153.089,58.767 153.235 C 58.823 153.381,58.785 153.500,58.681 153.500 C 58.564 153.500,58.533 153.657,58.598 153.917 C 58.656 154.147,58.630 154.333,58.541 154.333 C 58.452 154.333,58.415 154.521,58.459 154.750 C 58.505 154.987,58.461 155.167,58.358 155.167 C 58.259 155.167,58.215 155.265,58.261 155.386 C 58.307 155.506,57.893 157.789,57.339 160.457 C 56.786 163.126,56.333 165.390,56.333 165.488 C 56.333 165.840,81.959 165.728,82.064 165.375 C 82.112 165.215,82.572 162.946,83.087 160.333 C 83.602 157.721,84.315 154.128,84.673 152.350 C 85.030 150.572,85.281 149.050,85.230 148.968 C 85.179 148.886,85.226 148.713,85.333 148.583 C 85.441 148.454,85.480 148.270,85.421 148.174 C 85.362 148.078,85.368 147.913,85.434 147.806 C 85.500 147.699,85.569 147.418,85.589 147.181 C 85.608 146.944,86.062 144.519,86.598 141.792 L 87.572 136.833 102.246 136.833 C 117.856 136.833,118.866 136.792,122.833 135.991 C 123.796 135.797,124.771 135.612,125.000 135.581 C 125.229 135.549,125.435 135.508,125.458 135.491 C 125.481 135.473,125.575 135.440,125.667 135.417 C 125.758 135.394,125.890 135.357,125.958 135.334 C 126.027 135.312,126.132 135.300,126.193 135.308 C 126.595 135.362,133.202 132.791,134.301 132.153 C 134.604 131.977,134.953 131.833,135.075 131.833 C 135.197 131.833,135.337 131.731,135.385 131.607 C 135.432 131.483,135.684 131.337,135.944 131.284 C 136.204 131.231,136.567 131.068,136.750 130.923 C 136.933 130.778,137.908 130.128,138.917 129.479 C 149.063 122.942,156.175 113.169,159.579 101.088 C 160.597 97.475,161.384 92.947,161.214 91.681 C 161.152 91.216,161.185 91.000,161.320 91.000 C 161.465 91.000,161.488 90.632,161.404 89.606 C 161.326 88.641,161.349 88.177,161.479 88.096 C 161.728 87.942,161.731 85.393,161.482 85.239 C 161.355 85.161,161.334 84.687,161.414 83.729 C 161.501 82.681,161.479 82.333,161.327 82.333 C 161.190 82.333,161.158 82.168,161.228 81.817 C 161.817 78.874,157.393 67.352,155.132 65.940 C 154.968 65.837,154.833 65.708,154.833 65.653 C 154.833 64.468,145.168 57.722,144.042 58.121 C 143.927 58.161,143.833 58.113,143.833 58.014 C 143.833 57.915,143.777 57.850,143.708 57.871 C 143.640 57.891,142.533 57.559,141.250 57.132 C 138.987 56.380,136.617 55.831,133.000 55.223 C 131.388 54.952,129.162 54.924,104.742 54.876 L 78.234 54.824 77.960 56.203 M261.755 55.042 C 261.717 55.156,261.566 55.850,261.417 56.583 C 261.269 57.317,260.657 60.317,260.058 63.250 C 259.458 66.183,258.954 68.771,258.939 69.000 C 258.923 69.229,258.855 69.504,258.788 69.610 C 258.721 69.716,258.708 69.915,258.761 70.051 C 258.813 70.188,258.783 70.345,258.694 70.400 C 258.604 70.455,258.570 70.650,258.618 70.833 C 258.666 71.017,258.632 71.167,258.543 71.167 C 258.453 71.167,258.415 71.354,258.459 71.583 C 258.508 71.837,258.462 72.000,258.343 72.000 C 258.235 72.000,258.191 72.072,258.246 72.160 C 258.349 72.327,258.248 72.858,256.239 82.638 C 255.555 85.968,255.036 88.756,255.084 88.834 C 255.132 88.913,255.093 89.026,254.996 89.086 C 254.899 89.146,254.863 89.332,254.917 89.500 C 254.970 89.668,254.943 89.849,254.856 89.903 C 254.769 89.956,254.737 90.150,254.785 90.333 C 254.836 90.527,254.790 90.667,254.676 90.667 C 254.569 90.667,254.526 90.741,254.583 90.832 C 254.639 90.923,254.309 92.817,253.849 95.041 C 253.390 97.264,252.706 100.583,252.331 102.417 C 251.955 104.250,251.472 106.607,251.257 107.654 C 251.042 108.701,250.904 109.658,250.951 109.779 C 250.998 109.901,250.945 110.000,250.833 110.000 C 250.700 110.000,250.667 110.143,250.735 110.417 C 250.796 110.661,250.768 110.833,250.667 110.833 C 250.565 110.833,250.537 111.006,250.598 111.250 C 250.665 111.516,250.633 111.667,250.508 111.667 C 250.401 111.667,250.357 111.738,250.411 111.824 C 250.512 111.987,250.355 112.803,248.255 123.056 C 247.563 126.432,247.037 129.258,247.085 129.336 C 247.133 129.413,247.103 129.520,247.018 129.572 C 246.934 129.624,246.904 129.817,246.952 130.000 C 247.003 130.195,246.957 130.333,246.842 130.333 C 246.723 130.333,246.685 130.461,246.746 130.653 C 246.801 130.828,246.768 131.021,246.671 131.081 C 246.574 131.141,246.533 131.251,246.579 131.327 C 246.652 131.445,245.035 139.622,243.354 147.638 C 243.079 148.951,242.895 150.132,242.945 150.263 C 242.995 150.393,242.944 150.500,242.832 150.500 C 242.713 150.500,242.663 150.633,242.711 150.818 C 242.757 150.993,242.582 152.174,242.323 153.443 C 242.063 154.712,241.397 157.960,240.842 160.661 C 240.287 163.362,239.833 165.593,239.833 165.619 C 239.833 165.645,245.681 165.667,252.828 165.667 C 263.800 165.667,265.809 165.631,265.735 165.437 C 265.686 165.311,265.946 163.717,266.312 161.895 C 268.304 151.985,269.165 147.465,269.085 147.335 C 269.035 147.255,269.074 147.141,269.171 147.081 C 269.268 147.021,269.301 146.828,269.246 146.653 C 269.185 146.462,269.223 146.333,269.340 146.333 C 269.466 146.333,269.499 146.184,269.432 145.917 C 269.368 145.664,269.398 145.500,269.508 145.500 C 269.608 145.500,269.650 145.369,269.601 145.208 C 269.553 145.048,269.873 143.117,270.312 140.917 L 271.110 136.917 286.680 136.823 C 303.313 136.722,303.384 136.719,307.167 135.840 C 307.946 135.658,308.733 135.487,308.917 135.459 C 309.100 135.430,309.349 135.345,309.469 135.270 C 309.590 135.195,309.726 135.171,309.772 135.217 C 310.103 135.548,320.190 131.353,320.665 130.687 C 320.712 130.622,321.275 130.243,321.917 129.845 C 326.942 126.729,331.459 122.565,335.022 117.764 C 335.845 116.656,336.626 115.618,336.759 115.456 C 336.891 115.295,337.000 115.089,337.000 114.998 C 337.000 114.907,337.079 114.833,337.177 114.833 C 337.274 114.833,337.312 114.766,337.261 114.684 C 337.210 114.602,337.291 114.488,337.441 114.430 C 337.592 114.373,337.668 114.279,337.612 114.223 C 337.509 114.120,338.616 111.996,338.861 111.826 C 339.070 111.681,341.003 107.524,341.111 106.989 C 341.164 106.720,341.278 106.500,341.364 106.500 C 341.450 106.500,341.473 106.425,341.417 106.333 C 341.360 106.242,341.398 106.167,341.500 106.167 C 341.602 106.167,341.646 106.101,341.596 106.021 C 341.547 105.941,341.695 105.412,341.925 104.846 C 345.118 96.988,346.025 84.748,344.005 76.786 C 342.246 69.856,338.492 64.389,333.118 60.932 C 331.285 59.753,327.850 57.970,327.650 58.094 C 327.568 58.145,327.500 58.107,327.500 58.010 C 327.500 57.913,327.444 57.849,327.375 57.868 C 327.306 57.887,326.650 57.702,325.917 57.457 C 322.246 56.231,318.936 55.511,315.000 55.082 C 311.911 54.746,261.864 54.708,261.755 55.042 M121.613 75.511 C 122.330 75.608,123.333 75.794,123.842 75.923 C 124.351 76.053,124.951 76.192,125.175 76.234 C 125.400 76.275,125.583 76.320,125.583 76.333 C 125.583 76.347,125.769 76.392,125.995 76.434 C 127.132 76.642,130.115 78.410,130.897 79.340 C 131.125 79.611,131.374 79.833,131.449 79.833 C 131.970 79.833,133.647 83.110,134.051 84.917 C 134.869 88.578,133.459 97.793,131.384 102.333 C 131.154 102.837,130.939 103.384,130.908 103.549 C 130.876 103.713,130.608 104.275,130.312 104.799 C 126.585 111.388,121.501 114.601,112.354 116.151 C 110.445 116.474,109.655 116.500,101.734 116.500 L 93.177 116.500 93.201 115.583 C 93.215 115.079,93.293 114.667,93.376 114.667 C 93.459 114.667,93.477 114.442,93.417 114.167 C 93.347 113.848,93.373 113.667,93.490 113.667 C 93.600 113.667,93.633 113.507,93.573 113.268 C 93.518 113.049,93.555 112.819,93.656 112.757 C 93.756 112.694,93.797 112.576,93.745 112.492 C 93.694 112.409,94.451 107.746,95.427 102.129 C 96.403 96.512,97.204 91.635,97.207 91.292 C 97.210 90.948,97.285 90.667,97.374 90.667 C 97.463 90.667,97.492 90.490,97.438 90.275 C 97.384 90.059,97.392 89.830,97.456 89.766 C 97.521 89.702,97.582 89.409,97.593 89.116 C 97.605 88.823,98.128 85.602,98.757 81.958 L 99.900 75.333 110.104 75.333 C 116.384 75.333,120.811 75.401,121.613 75.511 M305.645 75.611 C 306.620 75.763,307.585 75.895,307.792 75.903 C 307.998 75.910,308.167 75.964,308.167 76.021 C 308.167 76.078,308.410 76.182,308.708 76.252 C 309.313 76.395,309.481 76.443,309.542 76.492 C 309.565 76.510,309.768 76.559,309.993 76.600 C 311.978 76.964,315.533 79.932,316.661 82.167 C 318.546 85.897,318.104 93.358,315.565 100.701 C 315.333 101.370,315.113 102.066,315.074 102.249 C 315.035 102.432,314.927 102.608,314.834 102.639 C 314.741 102.670,314.710 102.768,314.765 102.857 C 314.820 102.946,314.405 103.821,313.844 104.802 C 311.252 109.330,308.346 112.057,304.378 113.686 C 303.666 113.978,303.008 114.271,302.917 114.336 C 302.353 114.740,298.726 115.674,295.854 116.155 C 293.732 116.510,276.659 116.706,276.672 116.375 C 276.674 116.306,276.816 115.428,276.986 114.424 C 277.157 113.419,277.259 112.500,277.213 112.380 C 277.167 112.260,277.219 112.054,277.329 111.922 C 277.439 111.790,277.487 111.613,277.435 111.530 C 277.384 111.447,277.641 109.662,278.006 107.564 C 278.372 105.466,278.931 102.250,279.249 100.417 C 279.566 98.583,280.130 95.336,280.502 93.201 C 280.873 91.066,281.136 89.252,281.086 89.171 C 281.036 89.089,281.071 88.976,281.165 88.918 C 281.258 88.860,281.291 88.638,281.237 88.425 C 281.184 88.211,281.221 87.986,281.320 87.925 C 281.420 87.863,281.456 87.631,281.399 87.406 C 281.343 87.183,281.370 87.000,281.459 87.000 C 281.548 87.000,281.585 86.813,281.541 86.583 C 281.497 86.354,281.526 86.167,281.606 86.167 C 281.685 86.167,281.753 85.885,281.756 85.542 C 281.760 85.198,281.925 84.017,282.123 82.917 C 282.322 81.817,282.677 79.792,282.914 78.417 C 283.150 77.042,283.384 75.785,283.433 75.625 C 283.566 75.192,302.893 75.180,305.645 75.611 M0.019 158.458 L 0.000 208.833 200.000 208.833 L 400.000 208.833 399.981 158.458 C 399.964 114.832,399.931 108.351,399.733 110.083 C 399.607 111.183,399.393 112.675,399.257 113.399 C 399.121 114.122,399.049 114.778,399.098 114.857 C 399.147 114.936,399.102 115.000,398.999 115.000 C 398.889 115.000,398.853 115.134,398.912 115.319 C 398.968 115.495,398.934 115.688,398.837 115.747 C 398.741 115.807,398.704 115.925,398.755 116.009 C 398.961 116.342,396.357 124.744,395.840 125.417 C 395.769 125.508,395.470 126.216,395.176 126.988 C 394.486 128.796,393.039 131.687,391.898 133.540 C 391.404 134.341,391.000 135.103,391.000 135.234 C 391.000 135.365,390.942 135.497,390.871 135.528 C 390.800 135.558,390.161 136.483,389.452 137.583 C 388.742 138.683,387.919 139.920,387.622 140.332 C 386.233 142.262,384.545 144.467,384.088 144.949 C 383.346 145.732,383.083 146.060,383.083 146.202 C 383.083 146.439,374.465 155.333,374.235 155.333 C 374.201 155.333,373.865 155.668,373.487 156.078 C 373.110 156.487,372.738 156.806,372.661 156.786 C 372.583 156.766,372.047 157.204,371.468 157.759 C 370.096 159.076,368.427 160.500,368.255 160.500 C 368.181 160.500,368.037 160.603,367.935 160.730 C 366.844 162.084,355.064 170.140,349.750 173.166 C 348.100 174.105,346.637 174.969,346.500 175.086 C 346.363 175.203,344.825 176.028,343.083 176.919 C 341.342 177.810,339.073 178.986,338.042 179.533 C 337.010 180.080,336.167 180.488,336.167 180.440 C 336.167 180.391,335.660 180.600,335.042 180.905 C 333.060 181.880,328.105 184.205,327.924 184.245 C 327.704 184.293,327.550 184.355,324.917 185.459 C 321.409 186.929,318.277 188.168,317.887 188.240 C 317.687 188.277,316.862 188.571,316.054 188.894 C 313.928 189.743,307.091 192.183,306.875 192.169 C 306.852 192.168,306.815 192.172,306.792 192.179 C 306.769 192.186,306.621 192.217,306.463 192.247 C 306.306 192.278,305.031 192.678,303.630 193.137 C 298.627 194.775,294.551 195.992,293.750 196.085 C 293.567 196.107,293.417 196.140,293.417 196.159 C 293.417 196.179,293.267 196.215,293.083 196.241 C 292.900 196.266,291.625 196.600,290.250 196.983 C 286.135 198.128,279.012 199.861,278.845 199.757 C 278.760 199.705,278.639 199.743,278.578 199.842 C 278.517 199.941,278.364 199.983,278.238 199.935 C 278.113 199.887,277.963 199.925,277.905 200.019 C 277.847 200.113,277.702 200.152,277.582 200.106 C 277.462 200.060,276.889 200.134,276.307 200.270 C 270.681 201.591,258.102 203.926,257.617 203.740 C 257.479 203.687,257.324 203.714,257.271 203.800 C 257.218 203.885,256.985 203.919,256.754 203.875 C 256.488 203.824,256.333 203.870,256.333 204.000 C 256.333 204.124,256.200 204.171,255.996 204.117 C 255.811 204.069,254.479 204.206,253.038 204.421 C 244.592 205.684,231.076 207.130,226.960 207.211 C 225.884 207.233,225.003 207.316,225.002 207.397 C 225.001 207.478,224.473 207.507,223.830 207.461 C 223.140 207.412,222.617 207.445,222.557 207.543 C 222.497 207.640,221.981 207.674,221.311 207.626 C 220.608 207.576,220.167 207.608,220.167 207.710 C 220.167 207.818,219.518 207.834,218.333 207.757 C 217.039 207.674,216.500 207.692,216.500 207.822 C 216.500 207.951,215.888 207.973,214.417 207.894 C 213.053 207.821,212.333 207.841,212.333 207.951 C 212.333 208.062,208.181 208.119,200.000 208.119 C 191.819 208.119,187.667 208.062,187.667 207.951 C 187.667 207.841,186.947 207.821,185.583 207.894 C 184.112 207.973,183.500 207.951,183.500 207.822 C 183.500 207.692,182.961 207.674,181.667 207.757 C 180.482 207.834,179.833 207.818,179.833 207.710 C 179.833 207.608,179.392 207.576,178.689 207.626 C 178.019 207.674,177.503 207.640,177.443 207.543 C 177.383 207.445,176.860 207.412,176.170 207.461 C 175.527 207.507,174.999 207.478,174.998 207.397 C 174.997 207.316,174.116 207.233,173.040 207.211 C 168.958 207.131,155.429 205.683,146.962 204.420 C 145.521 204.205,144.189 204.069,144.004 204.117 C 143.801 204.170,143.667 204.124,143.667 204.001 C 143.667 203.868,143.525 203.833,143.260 203.899 C 143.037 203.955,142.804 203.921,142.743 203.823 C 142.683 203.724,142.521 203.687,142.383 203.740 C 141.895 203.927,129.282 201.586,123.693 200.271 C 123.111 200.134,122.538 200.060,122.418 200.106 C 122.298 200.152,122.153 200.113,122.095 200.019 C 122.037 199.925,121.887 199.887,121.762 199.935 C 121.636 199.983,121.483 199.941,121.422 199.842 C 121.361 199.743,121.240 199.705,121.155 199.757 C 120.988 199.861,113.865 198.128,109.750 196.983 C 108.375 196.600,107.100 196.266,106.917 196.241 C 106.733 196.215,106.583 196.179,106.583 196.159 C 106.583 196.140,106.433 196.107,106.250 196.086 C 105.538 196.006,100.752 194.579,96.393 193.147 C 95.006 192.691,93.664 192.281,93.412 192.235 C 92.920 192.146,85.638 189.610,85.083 189.335 C 84.576 189.084,82.461 188.309,82.083 188.236 C 81.578 188.140,79.424 187.288,75.974 185.822 C 74.263 185.095,72.782 184.500,72.682 184.500 C 72.582 184.500,72.500 184.430,72.500 184.344 C 72.500 184.258,72.369 184.196,72.208 184.207 C 72.048 184.218,70.878 183.725,69.608 183.113 C 68.338 182.501,67.270 182.000,67.234 182.000 C 67.198 182.000,66.419 181.629,65.501 181.175 C 64.584 180.722,63.833 180.387,63.833 180.432 C 63.833 180.524,58.766 177.912,57.254 177.040 C 56.706 176.725,56.134 176.442,55.982 176.413 C 55.831 176.384,55.216 176.073,54.616 175.722 C 54.016 175.371,52.133 174.279,50.432 173.296 C 44.735 170.005,32.667 161.747,32.667 161.139 C 32.667 161.063,32.552 161.000,32.411 161.000 C 32.271 161.000,32.113 160.887,32.060 160.750 C 32.008 160.612,31.884 160.500,31.787 160.500 C 31.586 160.500,30.095 159.243,28.530 157.753 C 27.951 157.201,27.414 156.766,27.338 156.786 C 27.262 156.806,26.890 156.487,26.513 156.078 C 26.135 155.668,25.796 155.333,25.760 155.333 C 25.685 155.333,20.418 150.007,18.348 147.837 C 17.607 147.060,17.000 146.341,17.000 146.240 C 17.000 146.138,16.675 145.724,16.279 145.319 C 14.902 143.915,11.540 139.313,9.957 136.667 C 9.546 135.979,8.759 134.667,8.208 133.750 C 7.209 132.087,5.098 128.000,5.238 128.000 C 5.304 128.000,4.936 127.126,4.009 125.083 C 3.294 123.509,1.575 118.189,1.423 117.083 C 1.398 116.900,1.326 116.630,1.264 116.483 C 1.201 116.336,1.163 116.149,1.178 116.067 C 1.194 115.984,1.191 115.879,1.173 115.833 C 1.155 115.787,1.120 115.563,1.096 115.333 C 1.071 115.104,0.927 114.279,0.774 113.500 C 0.621 112.721,0.393 111.183,0.268 110.083 C 0.069 108.350,0.036 114.807,0.019 158.458 " stroke="none" fill="#fcfcfc" fill-rule="evenodd"></path><path id="path1" d="M184.583 0.262 C 182.017 0.381,177.704 0.628,175.000 0.810 C 172.296 0.993,169.886 1.103,169.645 1.056 C 169.403 1.008,169.157 1.047,169.098 1.143 C 169.033 1.248,168.665 1.278,168.162 1.218 C 167.574 1.149,167.333 1.178,167.333 1.320 C 167.333 1.463,167.120 1.488,166.595 1.410 C 166.189 1.349,165.758 1.362,165.637 1.438 C 165.516 1.515,165.023 1.553,164.542 1.524 C 164.060 1.494,163.667 1.534,163.667 1.614 C 163.667 1.694,163.366 1.730,162.999 1.695 C 162.632 1.660,162.201 1.682,162.041 1.743 C 161.882 1.804,161.226 1.884,160.584 1.919 C 157.933 2.066,146.927 3.558,140.937 4.582 C 139.060 4.903,137.414 5.123,137.279 5.071 C 137.144 5.020,136.989 5.050,136.933 5.140 C 136.878 5.229,136.683 5.263,136.500 5.215 C 136.305 5.164,136.167 5.210,136.167 5.325 C 136.167 5.440,136.040 5.482,135.862 5.426 C 135.464 5.300,125.268 7.360,119.513 8.729 C 118.924 8.869,118.385 8.949,118.316 8.906 C 118.247 8.863,118.139 8.909,118.078 9.009 C 118.017 9.108,117.864 9.150,117.738 9.102 C 117.613 9.054,117.466 9.088,117.410 9.177 C 117.355 9.266,117.246 9.299,117.167 9.250 C 116.957 9.121,108.598 11.293,104.833 12.455 C 104.054 12.696,103.267 12.910,103.083 12.932 C 102.900 12.954,102.731 12.988,102.708 13.007 C 102.685 13.026,102.592 13.060,102.500 13.083 C 102.408 13.106,102.277 13.143,102.208 13.166 C 102.140 13.188,102.037 13.201,101.980 13.194 C 101.778 13.169,93.152 15.905,92.583 16.173 C 91.970 16.463,90.833 16.820,90.833 16.722 C 90.833 16.669,90.721 16.719,90.583 16.833 C 90.446 16.947,90.333 16.997,90.333 16.944 C 90.333 16.791,81.891 19.886,80.423 20.577 C 80.152 20.705,79.871 20.773,79.798 20.728 C 79.726 20.684,79.667 20.726,79.667 20.823 C 79.667 20.921,79.610 20.985,79.542 20.967 C 79.386 20.926,78.741 21.123,78.083 21.414 C 77.808 21.535,76.721 21.988,75.667 22.419 C 74.612 22.851,73.207 23.461,72.543 23.776 C 71.879 24.090,70.867 24.526,70.293 24.744 C 68.451 25.443,57.338 30.808,56.833 31.241 C 56.696 31.359,55.693 31.917,54.606 32.481 C 52.682 33.479,49.168 35.472,49.000 35.660 C 48.766 35.922,47.474 36.667,47.254 36.667 C 47.114 36.667,47.000 36.742,47.000 36.833 C 47.000 36.925,46.906 37.001,46.792 37.002 C 46.677 37.003,46.396 37.155,46.167 37.339 C 45.938 37.523,43.950 38.863,41.750 40.316 C 39.550 41.770,37.540 43.156,37.283 43.396 C 37.026 43.637,36.745 43.833,36.658 43.833 C 36.571 43.833,36.500 43.896,36.500 43.973 C 36.500 44.050,36.314 44.198,36.086 44.302 C 35.626 44.511,33.559 46.071,33.167 46.504 C 33.029 46.656,32.129 47.410,31.167 48.179 C 25.981 52.325,20.098 58.102,16.252 62.827 C 15.546 63.694,14.876 64.481,14.763 64.577 C 14.420 64.866,13.500 66.120,13.500 66.298 C 13.500 66.389,13.383 66.509,13.239 66.564 C 13.096 66.619,13.026 66.740,13.083 66.833 C 13.141 66.926,13.071 67.047,12.927 67.102 C 12.784 67.157,12.667 67.275,12.667 67.363 C 12.667 67.451,12.548 67.642,12.404 67.787 C 11.910 68.280,9.884 71.413,8.655 73.583 C 7.980 74.775,7.378 75.787,7.318 75.833 C 7.080 76.015,5.575 79.197,4.796 81.167 C 4.343 82.313,3.868 83.475,3.740 83.750 C 2.983 85.383,1.412 90.556,1.587 90.839 C 1.642 90.928,1.599 91.000,1.492 91.000 C 1.385 91.000,1.340 91.110,1.392 91.245 C 1.443 91.379,1.409 91.537,1.315 91.595 C 1.221 91.653,1.181 91.798,1.227 91.917 C 1.273 92.036,1.260 92.184,1.199 92.245 C 1.138 92.306,1.075 92.557,1.060 92.803 C 1.044 93.049,0.876 94.150,0.687 95.250 C -0.299 100.966,-0.239 108.517,0.834 113.820 C 1.009 114.683,1.116 115.447,1.073 115.517 C 1.030 115.586,1.068 115.689,1.157 115.744 C 1.246 115.799,1.278 115.951,1.228 116.081 C 1.178 116.211,1.195 116.412,1.266 116.527 C 1.338 116.642,1.412 116.889,1.432 117.076 C 1.540 118.077,3.272 123.459,4.009 125.083 C 4.936 127.126,5.304 128.000,5.238 128.000 C 5.098 128.000,7.209 132.087,8.208 133.750 C 8.759 134.667,9.546 135.979,9.957 136.667 C 11.540 139.313,14.902 143.915,16.279 145.319 C 16.675 145.724,17.000 146.138,17.000 146.240 C 17.000 146.341,17.607 147.060,18.348 147.837 C 20.418 150.007,25.685 155.333,25.760 155.333 C 25.796 155.333,26.135 155.668,26.513 156.078 C 26.890 156.487,27.262 156.806,27.338 156.786 C 27.414 156.766,27.951 157.201,28.530 157.753 C 30.095 159.243,31.586 160.500,31.787 160.500 C 31.884 160.500,32.008 160.613,32.060 160.750 C 32.113 160.887,32.271 161.000,32.411 161.000 C 32.552 161.000,32.667 161.063,32.667 161.139 C 32.667 161.747,44.735 170.005,50.432 173.296 C 52.133 174.279,54.016 175.371,54.616 175.722 C 55.216 176.073,55.831 176.384,55.982 176.413 C 56.134 176.442,56.706 176.725,57.254 177.040 C 58.766 177.912,63.833 180.524,63.833 180.432 C 63.833 180.387,64.584 180.722,65.501 181.175 C 66.419 181.629,67.198 182.000,67.234 182.000 C 67.270 182.000,68.338 182.501,69.608 183.113 C 70.878 183.725,72.048 184.218,72.208 184.207 C 72.369 184.196,72.500 184.258,72.500 184.344 C 72.500 184.430,72.582 184.500,72.682 184.500 C 72.782 184.500,74.263 185.095,75.974 185.822 C 79.424 187.288,81.578 188.140,82.083 188.236 C 82.461 188.309,84.576 189.084,85.083 189.335 C 85.638 189.610,92.920 192.146,93.412 192.235 C 93.664 192.281,95.006 192.691,96.393 193.147 C 100.752 194.579,105.538 196.006,106.250 196.086 C 106.433 196.107,106.583 196.140,106.583 196.159 C 106.583 196.179,106.733 196.215,106.917 196.241 C 107.100 196.266,108.375 196.600,109.750 196.983 C 113.865 198.128,120.988 199.861,121.155 199.757 C 121.240 199.705,121.361 199.743,121.422 199.842 C 121.483 199.941,121.636 199.983,121.762 199.935 C 121.887 199.887,122.037 199.925,122.095 200.019 C 122.153 200.113,122.298 200.152,122.418 200.106 C 122.538 200.060,123.111 200.134,123.693 200.271 C 129.282 201.586,141.895 203.927,142.383 203.740 C 142.521 203.687,142.683 203.724,142.743 203.823 C 142.804 203.921,143.037 203.955,143.260 203.899 C 143.525 203.833,143.667 203.868,143.667 204.001 C 143.667 204.124,143.801 204.170,144.004 204.117 C 144.189 204.069,145.521 204.205,146.962 204.420 C 155.429 205.683,168.958 207.131,173.040 207.211 C 174.116 207.233,174.997 207.316,174.998 207.397 C 174.999 207.478,175.527 207.507,176.170 207.461 C 176.860 207.412,177.383 207.445,177.443 207.543 C 177.503 207.640,178.019 207.674,178.689 207.626 C 179.392 207.576,179.833 207.608,179.833 207.710 C 179.833 207.818,180.482 207.834,181.667 207.757 C 182.961 207.674,183.500 207.692,183.500 207.822 C 183.500 207.951,184.112 207.973,185.583 207.894 C 186.947 207.821,187.667 207.841,187.667 207.951 C 187.667 208.062,191.819 208.119,200.000 208.119 C 208.181 208.119,212.333 208.062,212.333 207.951 C 212.333 207.841,213.053 207.821,214.417 207.894 C 215.888 207.973,216.500 207.951,216.500 207.822 C 216.500 207.692,217.039 207.674,218.333 207.757 C 219.518 207.834,220.167 207.818,220.167 207.710 C 220.167 207.608,220.608 207.576,221.311 207.626 C 221.981 207.674,222.497 207.640,222.557 207.543 C 222.617 207.445,223.140 207.412,223.830 207.461 C 224.473 207.507,225.001 207.478,225.002 207.397 C 225.003 207.316,225.884 207.233,226.960 207.211 C 231.076 207.130,244.592 205.684,253.038 204.421 C 254.479 204.206,255.811 204.069,255.996 204.117 C 256.200 204.171,256.333 204.124,256.333 204.000 C 256.333 203.870,256.488 203.824,256.754 203.875 C 256.985 203.919,257.218 203.885,257.271 203.800 C 257.324 203.714,257.479 203.687,257.617 203.740 C 258.102 203.926,270.681 201.591,276.307 200.270 C 276.889 200.134,277.462 200.060,277.582 200.106 C 277.702 200.152,277.847 200.113,277.905 200.019 C 277.963 199.925,278.113 199.887,278.238 199.935 C 278.364 199.983,278.517 199.941,278.578 199.842 C 278.639 199.743,278.760 199.705,278.845 199.757 C 279.012 199.861,286.135 198.128,290.250 196.983 C 291.625 196.600,292.900 196.266,293.083 196.241 C 293.267 196.215,293.417 196.179,293.417 196.159 C 293.417 196.140,293.567 196.107,293.750 196.085 C 294.551 195.992,298.627 194.775,303.630 193.137 C 305.031 192.678,306.268 192.289,306.380 192.272 C 306.492 192.255,306.677 192.182,306.792 192.110 C 306.906 192.039,307.000 192.017,307.000 192.062 C 307.000 192.207,313.131 190.062,316.054 188.894 C 316.862 188.571,317.687 188.277,317.887 188.240 C 318.277 188.168,321.409 186.929,324.917 185.459 C 327.550 184.355,327.704 184.293,327.924 184.245 C 328.105 184.205,333.060 181.880,335.042 180.905 C 335.660 180.600,336.167 180.391,336.167 180.440 C 336.167 180.488,337.010 180.080,338.042 179.533 C 339.073 178.986,341.342 177.810,343.083 176.919 C 344.825 176.028,346.363 175.203,346.500 175.086 C 346.637 174.969,348.100 174.105,349.750 173.166 C 355.064 170.140,366.844 162.084,367.935 160.730 C 368.037 160.603,368.181 160.500,368.255 160.500 C 368.427 160.500,370.096 159.076,371.468 157.759 C 372.047 157.204,372.583 156.766,372.661 156.786 C 372.738 156.806,373.110 156.487,373.487 156.078 C 373.865 155.668,374.201 155.333,374.235 155.333 C 374.465 155.333,383.083 146.439,383.083 146.202 C 383.083 146.060,383.346 145.732,384.088 144.949 C 384.545 144.467,386.233 142.262,387.622 140.332 C 387.919 139.920,388.742 138.683,389.452 137.583 C 390.161 136.483,390.800 135.558,390.871 135.528 C 390.942 135.497,391.000 135.365,391.000 135.234 C 391.000 135.103,391.404 134.341,391.898 133.540 C 393.039 131.687,394.486 128.796,395.176 126.988 C 395.470 126.216,395.769 125.508,395.840 125.417 C 396.357 124.744,398.961 116.342,398.755 116.009 C 398.704 115.925,398.741 115.807,398.837 115.747 C 398.934 115.688,398.968 115.495,398.912 115.319 C 398.853 115.134,398.889 115.000,398.999 115.000 C 399.102 115.000,399.146 114.935,399.097 114.855 C 399.048 114.776,399.113 114.157,399.243 113.480 C 400.230 108.315,400.265 100.712,399.326 95.266 C 399.153 94.266,399.048 93.390,399.092 93.319 C 399.136 93.248,399.099 93.145,399.010 93.090 C 398.921 93.034,398.891 92.878,398.943 92.743 C 398.995 92.607,398.955 92.396,398.853 92.274 C 398.752 92.152,398.706 92.016,398.751 91.972 C 398.923 91.799,396.727 84.469,396.338 83.917 C 396.273 83.825,395.976 83.112,395.677 82.333 C 394.680 79.731,392.986 76.060,392.678 75.833 C 392.616 75.787,392.131 74.962,391.601 74.000 C 390.631 72.241,387.730 67.754,387.255 67.279 C 387.115 67.139,387.000 66.975,387.000 66.916 C 387.000 66.776,385.537 64.826,385.186 64.499 C 384.856 64.191,382.500 61.377,382.500 61.291 C 382.500 60.923,375.462 53.886,372.583 51.375 C 371.483 50.416,370.431 49.452,370.244 49.232 C 370.057 49.013,369.845 48.833,369.772 48.833 C 369.629 48.833,367.240 46.923,366.833 46.483 C 366.039 45.624,355.263 38.089,354.250 37.683 C 354.158 37.647,354.046 37.568,354.000 37.509 C 353.841 37.303,352.892 36.686,352.655 36.635 C 352.524 36.607,352.180 36.416,351.891 36.212 C 350.997 35.581,347.686 33.678,345.500 32.540 C 344.354 31.943,343.304 31.359,343.167 31.242 C 342.586 30.747,332.152 25.734,329.259 24.561 C 328.256 24.154,327.356 23.757,327.259 23.679 C 327.163 23.601,326.033 23.108,324.750 22.585 C 323.467 22.062,322.091 21.486,321.692 21.305 C 321.294 21.125,320.825 20.966,320.650 20.953 C 320.476 20.940,320.333 20.866,320.333 20.788 C 320.333 20.710,320.274 20.684,320.202 20.728 C 320.129 20.773,319.848 20.705,319.577 20.576 C 318.526 20.079,310.325 17.023,309.834 16.946 C 309.696 16.925,309.490 16.849,309.375 16.777 C 309.260 16.706,309.167 16.686,309.167 16.733 C 309.167 16.820,308.021 16.456,307.417 16.177 C 307.030 15.998,302.742 14.599,300.001 13.758 C 298.964 13.439,298.057 13.215,297.986 13.259 C 297.915 13.303,297.809 13.261,297.750 13.167 C 297.691 13.072,297.579 13.035,297.500 13.083 C 297.421 13.132,297.309 13.095,297.250 13.000 C 297.191 12.905,297.081 12.866,297.005 12.913 C 296.929 12.960,296.316 12.818,295.642 12.598 C 292.677 11.629,283.053 9.114,282.833 9.250 C 282.754 9.299,282.645 9.266,282.590 9.177 C 282.534 9.088,282.387 9.054,282.262 9.102 C 282.136 9.150,281.983 9.108,281.922 9.009 C 281.861 8.909,281.753 8.863,281.684 8.906 C 281.615 8.949,281.076 8.869,280.487 8.729 C 274.732 7.360,264.536 5.300,264.138 5.426 C 263.960 5.482,263.833 5.440,263.833 5.325 C 263.833 5.210,263.695 5.164,263.500 5.215 C 263.317 5.263,263.122 5.229,263.067 5.140 C 263.011 5.050,262.856 5.020,262.721 5.071 C 262.586 5.123,260.931 4.901,259.042 4.578 C 252.582 3.474,241.496 1.994,239.293 1.943 C 238.675 1.928,238.169 1.853,238.168 1.776 C 238.167 1.699,237.754 1.662,237.250 1.693 C 236.745 1.724,236.333 1.687,236.333 1.610 C 236.333 1.532,235.940 1.494,235.458 1.524 C 234.977 1.553,234.484 1.515,234.363 1.438 C 234.242 1.362,233.811 1.349,233.405 1.410 C 232.880 1.488,232.667 1.463,232.667 1.320 C 232.667 1.178,232.426 1.149,231.838 1.218 C 231.335 1.278,230.967 1.248,230.902 1.143 C 230.843 1.047,230.597 1.008,230.355 1.056 C 230.114 1.104,227.806 1.000,225.226 0.826 C 212.812 -0.013,195.643 -0.251,184.583 0.262 M204.333 26.330 C 204.333 26.420,203.692 29.721,202.909 33.667 C 202.126 37.612,201.527 40.908,201.578 40.992 C 201.630 41.075,201.593 41.193,201.496 41.253 C 201.399 41.312,201.363 41.499,201.417 41.667 C 201.470 41.835,201.430 42.023,201.329 42.086 C 201.227 42.149,201.178 42.289,201.220 42.398 C 201.262 42.507,200.754 45.331,200.091 48.673 L 198.887 54.750 212.485 54.845 C 226.967 54.946,226.607 54.927,231.163 55.831 C 233.081 56.211,235.817 56.989,237.354 57.592 C 237.897 57.804,238.359 57.979,238.379 57.979 C 240.037 57.978,245.943 62.273,247.856 64.872 C 248.346 65.538,248.804 66.108,248.874 66.139 C 248.943 66.169,249.000 66.341,249.000 66.519 C 249.000 66.698,249.112 66.887,249.249 66.939 C 249.386 66.992,249.461 67.095,249.416 67.168 C 249.371 67.241,249.595 67.851,249.914 68.525 C 251.762 72.425,251.846 75.672,250.319 84.296 C 249.860 86.887,249.527 89.076,249.579 89.159 C 249.630 89.242,249.596 89.358,249.502 89.415 C 249.409 89.473,249.378 89.703,249.434 89.927 C 249.490 90.151,249.463 90.333,249.373 90.333 C 249.283 90.333,249.209 90.615,249.208 90.958 C 249.208 91.302,248.716 94.321,248.114 97.667 C 245.920 109.880,245.507 112.323,245.597 112.559 C 245.648 112.691,245.616 112.845,245.527 112.900 C 245.438 112.955,245.404 113.150,245.452 113.333 C 245.503 113.529,245.457 113.667,245.340 113.667 C 245.205 113.667,245.176 113.829,245.250 114.167 C 245.322 114.494,245.294 114.667,245.170 114.667 C 245.066 114.667,245.026 114.741,245.083 114.832 C 245.139 114.923,244.914 116.517,244.584 118.374 C 244.009 121.603,243.597 123.911,242.243 131.500 C 241.908 133.379,241.613 135.190,241.588 135.523 C 241.563 135.857,241.491 136.213,241.428 136.315 C 241.365 136.417,241.360 136.575,241.417 136.667 C 241.485 136.777,236.939 136.833,227.905 136.833 L 214.291 136.833 214.423 136.125 C 214.496 135.735,214.562 135.210,214.569 134.958 C 214.577 134.706,214.646 134.500,214.722 134.500 C 214.798 134.500,214.810 134.275,214.750 134.000 C 214.676 133.664,214.705 133.500,214.838 133.500 C 214.947 133.500,214.998 133.401,214.951 133.280 C 214.905 133.159,215.079 131.978,215.339 130.655 C 215.598 129.332,216.457 124.967,217.246 120.954 C 218.036 116.942,218.639 113.591,218.588 113.508 C 218.537 113.424,218.576 113.306,218.675 113.245 C 218.775 113.183,218.813 113.021,218.761 112.885 C 218.708 112.748,218.720 112.550,218.787 112.443 C 218.854 112.337,218.925 112.025,218.945 111.750 C 218.966 111.475,219.282 109.750,219.648 107.917 C 221.650 97.892,222.672 92.477,222.589 92.342 C 222.537 92.258,222.564 92.147,222.648 92.095 C 222.733 92.042,222.763 91.850,222.715 91.667 C 222.663 91.467,222.710 91.333,222.832 91.333 C 222.967 91.333,223.000 91.191,222.932 90.917 C 222.868 90.665,222.898 90.500,223.007 90.500 C 223.105 90.500,223.146 90.434,223.096 90.353 C 223.046 90.273,223.279 88.791,223.613 87.062 C 224.939 80.202,224.355 77.346,221.389 76.186 C 219.249 75.349,218.755 75.322,206.336 75.371 L 194.756 75.417 194.133 78.417 C 193.790 80.067,193.542 81.508,193.581 81.620 C 193.620 81.731,193.587 81.863,193.508 81.911 C 193.429 81.960,193.404 82.150,193.452 82.333 C 193.500 82.517,193.470 82.667,193.386 82.667 C 193.302 82.667,193.227 82.910,193.220 83.208 C 193.212 83.506,192.371 87.749,191.351 92.637 C 190.330 97.525,189.535 101.588,189.584 101.667 C 189.632 101.746,189.603 101.853,189.518 101.905 C 189.434 101.958,189.404 102.150,189.452 102.333 C 189.500 102.517,189.470 102.667,189.386 102.667 C 189.302 102.667,189.223 102.910,189.211 103.208 C 189.199 103.506,188.395 107.562,187.425 112.220 C 186.456 116.879,185.705 120.760,185.757 120.845 C 185.810 120.930,185.765 121.000,185.658 121.000 C 185.534 121.000,185.502 121.150,185.568 121.417 C 185.630 121.661,185.601 121.833,185.500 121.833 C 185.399 121.833,185.370 122.006,185.432 122.250 C 185.500 122.523,185.466 122.667,185.334 122.667 C 185.222 122.667,185.170 122.769,185.218 122.893 C 185.266 123.018,184.675 126.149,183.905 129.852 C 183.134 133.554,182.503 136.640,182.502 136.708 C 182.501 136.777,176.686 136.833,169.580 136.833 L 156.660 136.833 156.749 136.458 C 157.259 134.309,158.648 127.104,158.575 126.987 C 158.523 126.902,158.568 126.833,158.675 126.833 C 158.799 126.833,158.832 126.683,158.765 126.417 C 158.707 126.188,158.729 126.000,158.814 126.000 C 158.898 126.000,158.964 125.756,158.960 125.458 C 158.956 125.160,159.305 123.229,159.735 121.167 C 161.713 111.690,162.505 107.643,162.413 107.495 C 162.359 107.406,162.402 107.333,162.510 107.333 C 162.629 107.333,162.674 107.170,162.626 106.917 C 162.582 106.688,162.619 106.500,162.708 106.500 C 162.796 106.500,162.823 106.381,162.767 106.235 C 162.711 106.089,162.721 105.883,162.788 105.777 C 162.855 105.670,162.921 105.394,162.934 105.162 C 162.957 104.746,163.218 103.450,165.505 92.373 C 166.154 89.233,166.642 86.594,166.589 86.510 C 166.537 86.425,166.574 86.307,166.671 86.247 C 166.768 86.188,166.803 86.001,166.750 85.833 C 166.697 85.665,166.736 85.477,166.838 85.414 C 166.940 85.351,166.983 85.197,166.935 85.072 C 166.887 84.947,166.916 84.802,167.000 84.750 C 167.084 84.698,167.116 84.563,167.073 84.449 C 167.029 84.335,167.448 82.069,168.004 79.413 C 169.667 71.471,170.343 67.985,170.252 67.836 C 170.204 67.758,170.239 67.670,170.329 67.639 C 170.420 67.608,170.521 67.276,170.555 66.900 C 170.589 66.524,170.670 66.130,170.735 66.025 C 170.800 65.920,170.807 65.758,170.750 65.667 C 170.693 65.575,170.706 65.406,170.779 65.292 C 170.851 65.177,170.923 64.896,170.939 64.667 C 170.971 64.187,171.628 60.927,173.423 52.333 C 174.122 48.987,174.698 45.967,174.703 45.621 C 174.708 45.275,174.778 44.951,174.859 44.901 C 174.939 44.851,174.968 44.749,174.922 44.675 C 174.876 44.601,175.205 42.787,175.654 40.645 C 176.103 38.503,176.931 34.462,177.494 31.667 C 178.056 28.871,178.548 26.490,178.586 26.375 C 178.675 26.110,204.333 26.065,204.333 26.330 M133.000 55.223 C 136.617 55.831,138.987 56.380,141.250 57.132 C 142.533 57.559,143.640 57.891,143.708 57.871 C 143.777 57.850,143.833 57.915,143.833 58.014 C 143.833 58.113,143.927 58.161,144.042 58.121 C 145.168 57.722,154.833 64.468,154.833 65.653 C 154.833 65.708,154.968 65.837,155.132 65.940 C 157.393 67.352,161.817 78.874,161.228 81.817 C 161.158 82.168,161.190 82.333,161.327 82.333 C 161.479 82.333,161.501 82.681,161.414 83.729 C 161.334 84.687,161.355 85.161,161.482 85.239 C 161.731 85.393,161.728 87.942,161.479 88.096 C 161.349 88.177,161.326 88.641,161.404 89.606 C 161.488 90.632,161.465 91.000,161.320 91.000 C 161.185 91.000,161.152 91.216,161.214 91.681 C 161.384 92.947,160.597 97.475,159.579 101.088 C 156.175 113.169,149.063 122.942,138.917 129.479 C 137.908 130.128,136.933 130.778,136.750 130.923 C 136.567 131.068,136.204 131.231,135.944 131.284 C 135.684 131.337,135.432 131.483,135.385 131.607 C 135.337 131.731,135.197 131.833,135.075 131.833 C 134.953 131.833,134.604 131.977,134.301 132.153 C 133.202 132.791,126.595 135.362,126.193 135.308 C 126.132 135.300,126.027 135.312,125.958 135.334 C 125.890 135.357,125.758 135.394,125.667 135.417 C 125.575 135.440,125.481 135.473,125.458 135.491 C 125.435 135.508,125.229 135.549,125.000 135.581 C 124.771 135.612,123.796 135.797,122.833 135.991 C 118.866 136.792,117.856 136.833,102.246 136.833 L 87.572 136.833 86.598 141.792 C 86.062 144.519,85.608 146.944,85.589 147.181 C 85.569 147.418,85.500 147.699,85.434 147.806 C 85.368 147.913,85.362 148.078,85.421 148.174 C 85.480 148.270,85.441 148.454,85.333 148.583 C 85.226 148.713,85.179 148.886,85.230 148.968 C 85.281 149.050,85.030 150.572,84.673 152.350 C 84.315 154.128,83.602 157.721,83.087 160.333 C 82.572 162.946,82.112 165.215,82.064 165.375 C 81.959 165.728,56.333 165.840,56.333 165.488 C 56.333 165.390,56.786 163.126,57.339 160.457 C 57.893 157.789,58.307 155.506,58.261 155.386 C 58.215 155.265,58.259 155.167,58.358 155.167 C 58.461 155.167,58.505 154.987,58.459 154.750 C 58.415 154.521,58.452 154.333,58.541 154.333 C 58.630 154.333,58.656 154.147,58.598 153.917 C 58.533 153.657,58.564 153.500,58.681 153.500 C 58.785 153.500,58.823 153.381,58.767 153.235 C 58.711 153.089,58.721 152.883,58.788 152.777 C 58.855 152.670,58.921 152.396,58.934 152.167 C 58.947 151.938,59.376 149.725,59.888 147.250 C 62.208 136.043,62.710 133.556,62.732 133.167 C 62.745 132.938,62.815 132.656,62.888 132.542 C 62.960 132.427,62.981 132.271,62.934 132.195 C 62.887 132.119,63.336 129.700,63.931 126.820 C 65.965 116.969,66.349 114.994,66.257 114.844 C 66.206 114.762,66.239 114.670,66.329 114.639 C 66.420 114.608,66.521 114.276,66.555 113.900 C 66.589 113.524,66.670 113.130,66.735 113.025 C 66.800 112.920,66.807 112.758,66.750 112.667 C 66.693 112.575,66.706 112.406,66.779 112.292 C 66.851 112.177,66.922 111.896,66.937 111.667 C 66.952 111.438,67.205 110.087,67.499 108.667 C 68.335 104.633,69.810 97.463,70.277 95.167 C 70.510 94.021,70.720 92.821,70.743 92.500 C 70.767 92.179,70.802 91.917,70.821 91.917 C 70.840 91.917,70.889 91.657,70.930 91.341 C 70.971 91.024,71.450 88.624,71.995 86.007 C 73.925 76.734,74.664 72.964,74.580 72.828 C 74.533 72.752,74.574 72.641,74.671 72.581 C 74.768 72.521,74.801 72.328,74.746 72.153 C 74.685 71.962,74.723 71.833,74.840 71.833 C 74.966 71.833,74.999 71.684,74.932 71.417 C 74.868 71.165,74.898 71.000,75.007 71.000 C 75.105 71.000,75.147 70.936,75.098 70.857 C 75.003 70.704,75.293 69.174,76.757 62.083 C 77.268 59.608,77.810 56.962,77.960 56.203 L 78.234 54.824 104.742 54.876 C 129.162 54.924,131.388 54.952,133.000 55.223 M315.000 55.082 C 318.936 55.511,322.246 56.231,325.917 57.457 C 326.650 57.702,327.306 57.887,327.375 57.868 C 327.444 57.849,327.500 57.913,327.500 58.010 C 327.500 58.107,327.568 58.145,327.650 58.094 C 327.850 57.970,331.285 59.753,333.118 60.932 C 338.492 64.389,342.246 69.856,344.005 76.786 C 346.025 84.748,345.118 96.988,341.925 104.846 C 341.695 105.412,341.547 105.941,341.596 106.021 C 341.646 106.101,341.602 106.167,341.500 106.167 C 341.398 106.167,341.360 106.242,341.417 106.333 C 341.473 106.425,341.450 106.500,341.364 106.500 C 341.278 106.500,341.164 106.720,341.111 106.989 C 341.003 107.524,339.070 111.681,338.861 111.826 C 338.616 111.996,337.509 114.120,337.612 114.223 C 337.668 114.279,337.592 114.373,337.441 114.430 C 337.291 114.488,337.210 114.602,337.261 114.684 C 337.312 114.766,337.274 114.833,337.177 114.833 C 337.079 114.833,337.000 114.907,337.000 114.998 C 337.000 115.089,336.891 115.295,336.759 115.456 C 336.626 115.618,335.845 116.656,335.022 117.764 C 331.459 122.565,326.942 126.729,321.917 129.845 C 321.275 130.243,320.712 130.622,320.665 130.687 C 320.190 131.353,310.103 135.548,309.772 135.217 C 309.726 135.171,309.590 135.195,309.469 135.270 C 309.349 135.345,309.100 135.430,308.917 135.459 C 308.733 135.487,307.946 135.658,307.167 135.840 C 303.384 136.719,303.313 136.722,286.680 136.823 L 271.110 136.917 270.312 140.917 C 269.873 143.117,269.553 145.048,269.601 145.208 C 269.650 145.369,269.608 145.500,269.508 145.500 C 269.398 145.500,269.368 145.664,269.432 145.917 C 269.499 146.184,269.466 146.333,269.340 146.333 C 269.223 146.333,269.185 146.462,269.246 146.653 C 269.301 146.828,269.268 147.021,269.171 147.081 C 269.074 147.141,269.035 147.255,269.085 147.335 C 269.165 147.465,268.304 151.985,266.312 161.895 C 265.946 163.717,265.686 165.311,265.735 165.437 C 265.809 165.631,263.800 165.667,252.828 165.667 C 245.681 165.667,239.833 165.645,239.833 165.619 C 239.833 165.593,240.287 163.362,240.842 160.661 C 241.397 157.960,242.063 154.712,242.323 153.443 C 242.582 152.174,242.757 150.993,242.711 150.818 C 242.663 150.633,242.713 150.500,242.832 150.500 C 242.944 150.500,242.995 150.393,242.945 150.263 C 242.895 150.132,243.079 148.951,243.354 147.638 C 245.035 139.622,246.652 131.445,246.579 131.327 C 246.533 131.251,246.574 131.141,246.671 131.081 C 246.768 131.021,246.801 130.828,246.746 130.653 C 246.685 130.461,246.723 130.333,246.842 130.333 C 246.957 130.333,247.003 130.195,246.952 130.000 C 246.904 129.817,246.934 129.624,247.018 129.572 C 247.103 129.520,247.133 129.413,247.085 129.336 C 247.037 129.258,247.563 126.432,248.255 123.056 C 250.355 112.803,250.512 111.987,250.411 111.824 C 250.357 111.738,250.401 111.667,250.508 111.667 C 250.633 111.667,250.665 111.516,250.598 111.250 C 250.537 111.006,250.565 110.833,250.667 110.833 C 250.768 110.833,250.796 110.661,250.735 110.417 C 250.667 110.143,250.700 110.000,250.833 110.000 C 250.945 110.000,250.998 109.901,250.951 109.779 C 250.904 109.658,251.042 108.701,251.257 107.654 C 251.472 106.607,251.955 104.250,252.331 102.417 C 252.706 100.583,253.390 97.264,253.849 95.041 C 254.309 92.817,254.639 90.923,254.583 90.832 C 254.526 90.741,254.569 90.667,254.676 90.667 C 254.790 90.667,254.836 90.527,254.785 90.333 C 254.737 90.150,254.769 89.956,254.856 89.903 C 254.943 89.849,254.970 89.668,254.917 89.500 C 254.863 89.332,254.899 89.146,254.996 89.086 C 255.093 89.026,255.132 88.913,255.084 88.834 C 255.036 88.756,255.555 85.968,256.239 82.638 C 258.248 72.858,258.349 72.327,258.246 72.160 C 258.191 72.072,258.235 72.000,258.343 72.000 C 258.462 72.000,258.508 71.837,258.459 71.583 C 258.415 71.354,258.453 71.167,258.543 71.167 C 258.632 71.167,258.666 71.017,258.618 70.833 C 258.570 70.650,258.604 70.455,258.694 70.400 C 258.783 70.345,258.813 70.188,258.761 70.051 C 258.708 69.915,258.721 69.716,258.788 69.610 C 258.855 69.504,258.923 69.229,258.939 69.000 C 258.954 68.771,259.458 66.183,260.058 63.250 C 260.657 60.317,261.269 57.317,261.417 56.583 C 261.566 55.850,261.717 55.156,261.755 55.042 C 261.864 54.708,311.911 54.746,315.000 55.082 M98.757 81.958 C 98.128 85.602,97.605 88.823,97.593 89.116 C 97.582 89.409,97.521 89.702,97.456 89.766 C 97.392 89.830,97.384 90.059,97.438 90.275 C 97.492 90.490,97.463 90.667,97.374 90.667 C 97.285 90.667,97.210 90.948,97.207 91.292 C 97.204 91.635,96.403 96.512,95.427 102.129 C 94.451 107.746,93.694 112.409,93.745 112.492 C 93.797 112.576,93.756 112.694,93.656 112.757 C 93.555 112.819,93.518 113.049,93.573 113.268 C 93.633 113.507,93.600 113.667,93.490 113.667 C 93.373 113.667,93.347 113.848,93.417 114.167 C 93.477 114.442,93.459 114.667,93.376 114.667 C 93.293 114.667,93.215 115.079,93.201 115.583 L 93.177 116.500 101.734 116.500 C 109.655 116.500,110.445 116.474,112.354 116.151 C 121.501 114.601,126.585 111.388,130.312 104.799 C 130.608 104.275,130.876 103.713,130.908 103.549 C 130.939 103.384,131.154 102.837,131.384 102.333 C 133.459 97.793,134.869 88.578,134.051 84.917 C 133.647 83.110,131.970 79.833,131.449 79.833 C 131.374 79.833,131.125 79.611,130.897 79.340 C 130.115 78.410,127.132 76.642,125.995 76.434 C 125.769 76.392,125.583 76.347,125.583 76.333 C 125.583 76.320,125.400 76.275,125.175 76.234 C 124.951 76.192,124.351 76.053,123.842 75.923 C 121.793 75.402,120.197 75.333,110.104 75.333 L 99.900 75.333 98.757 81.958 M283.433 75.625 C 283.384 75.785,283.150 77.042,282.914 78.417 C 282.677 79.792,282.322 81.817,282.123 82.917 C 281.925 84.017,281.760 85.198,281.756 85.542 C 281.753 85.885,281.685 86.167,281.606 86.167 C 281.526 86.167,281.497 86.354,281.541 86.583 C 281.585 86.813,281.548 87.000,281.459 87.000 C 281.370 87.000,281.343 87.183,281.399 87.406 C 281.456 87.631,281.420 87.863,281.320 87.925 C 281.221 87.986,281.184 88.211,281.237 88.425 C 281.291 88.638,281.258 88.860,281.165 88.918 C 281.071 88.976,281.036 89.089,281.086 89.171 C 281.136 89.252,280.873 91.066,280.502 93.201 C 280.130 95.336,279.566 98.583,279.249 100.417 C 278.931 102.250,278.372 105.466,278.006 107.564 C 277.641 109.662,277.384 111.447,277.435 111.530 C 277.487 111.613,277.439 111.790,277.329 111.922 C 277.219 112.054,277.167 112.260,277.213 112.380 C 277.259 112.500,277.157 113.419,276.986 114.424 C 276.816 115.428,276.674 116.306,276.672 116.375 C 276.659 116.706,293.732 116.510,295.854 116.155 C 298.726 115.674,302.353 114.740,302.917 114.336 C 303.008 114.271,303.666 113.978,304.378 113.686 C 308.346 112.057,311.252 109.330,313.844 104.802 C 314.405 103.821,314.820 102.946,314.765 102.857 C 314.710 102.768,314.741 102.670,314.834 102.639 C 314.927 102.608,315.035 102.432,315.074 102.249 C 315.113 102.066,315.333 101.370,315.565 100.701 C 318.104 93.358,318.546 85.897,316.661 82.167 C 315.533 79.932,311.978 76.964,309.993 76.600 C 309.768 76.559,309.565 76.510,309.542 76.492 C 309.481 76.443,309.313 76.395,308.708 76.252 C 308.410 76.182,308.167 76.078,308.167 76.021 C 308.167 75.964,307.998 75.910,307.792 75.903 C 307.585 75.895,306.620 75.763,305.645 75.611 C 302.893 75.180,283.566 75.192,283.433 75.625 " stroke="none" fill="#8c94bc" fill-rule="evenodd"></path></g></svg>